<svg width="23" height="24" viewBox="0 0 23 24" fill="none" xmlns="http://www.w3.org/2000/svg">
<path d="M11.4993 2.41602C6.21893 2.41602 1.91602 6.71893 1.91602 11.9993C1.91602 17.2798 6.21893 21.5827 11.4993 21.5827C16.7798 21.5827 21.0827 17.2798 21.0827 11.9993C21.0827 6.71893 16.7798 2.41602 11.4993 2.41602ZM14.7193 14.2035C14.9973 14.4814 14.9973 14.9414 14.7193 15.2193C14.5756 15.3631 14.3935 15.4302 14.2114 15.4302C14.0293 15.4302 13.8473 15.3631 13.7035 15.2193L11.4993 13.0152L9.29518 15.2193C9.15143 15.3631 8.96935 15.4302 8.78727 15.4302C8.60518 15.4302 8.4231 15.3631 8.27935 15.2193C8.00143 14.9414 8.00143 14.4814 8.27935 14.2035L10.4835 11.9993L8.27935 9.79518C8.00143 9.51727 8.00143 9.05727 8.27935 8.77935C8.55727 8.50143 9.01727 8.50143 9.29518 8.77935L11.4993 10.9835L13.7035 8.77935C13.9814 8.50143 14.4414 8.50143 14.7193 8.77935C14.9973 9.05727 14.9973 9.51727 14.7193 9.79518L12.5152 11.9993L14.7193 14.2035Z" fill="#EC9A88"/>
</svg>
