<svg width="20" height="20" viewBox="0 0 20 20" fill="none" xmlns="http://www.w3.org/2000/svg">
<g clip-path="url(#clip0_1_32651)">
<path d="M7.49935 4.16602H5.83268C5.39065 4.16602 4.96673 4.34161 4.65417 4.65417C4.34161 4.96673 4.16602 5.39065 4.16602 5.83268V15.8327C4.16602 16.2747 4.34161 16.6986 4.65417 17.0112C4.96673 17.3238 5.39065 17.4993 5.83268 17.4993H14.166C14.608 17.4993 15.032 17.3238 15.3445 17.0112C15.6571 16.6986 15.8327 16.2747 15.8327 15.8327V5.83268C15.8327 5.39065 15.6571 4.96673 15.3445 4.65417C15.032 4.34161 14.608 4.16602 14.166 4.16602H12.4993" stroke="#68ACD1" stroke-width="1.25" stroke-linecap="round" stroke-linejoin="round"/>
<path d="M7.5 4.16667C7.5 3.72464 7.6756 3.30072 7.98816 2.98816C8.30072 2.67559 8.72464 2.5 9.16667 2.5H10.8333C11.2754 2.5 11.6993 2.67559 12.0118 2.98816C12.3244 3.30072 12.5 3.72464 12.5 4.16667C12.5 4.60869 12.3244 5.03262 12.0118 5.34518C11.6993 5.65774 11.2754 5.83333 10.8333 5.83333H9.16667C8.72464 5.83333 8.30072 5.65774 7.98816 5.34518C7.6756 5.03262 7.5 4.60869 7.5 4.16667Z" stroke="#68ACD1" stroke-width="1.25" stroke-linecap="round" stroke-linejoin="round"/>
<path d="M11.6673 9.16602H9.58398C9.25246 9.16602 8.93452 9.29771 8.7001 9.53213C8.46568 9.76655 8.33398 10.0845 8.33398 10.416C8.33398 10.7475 8.46568 11.0655 8.7001 11.2999C8.93452 11.5343 9.25246 11.666 9.58398 11.666H10.4173C10.7488 11.666 11.0668 11.7977 11.3012 12.0321C11.5356 12.2666 11.6673 12.5845 11.6673 12.916C11.6673 13.2475 11.5356 13.5655 11.3012 13.7999C11.0668 14.0343 10.7488 14.166 10.4173 14.166H8.33398" stroke="#68ACD1" stroke-width="1.25" stroke-linecap="round" stroke-linejoin="round"/>
<path d="M10 14.1673V15.0007M10 8.33398V9.16732" stroke="#68ACD1" stroke-width="1.25" stroke-linecap="round" stroke-linejoin="round"/>
</g>
<defs>
<clipPath id="clip0_1_32651">
<rect width="20" height="20" fill="white"/>
</clipPath>
</defs>
</svg>
