<svg width="20" height="20" viewBox="0 0 20 20" fill="none" xmlns="http://www.w3.org/2000/svg">
<path d="M9.99935 1.66602C5.40768 1.66602 1.66602 5.40768 1.66602 9.99935C1.66602 14.591 5.40768 18.3327 9.99935 18.3327C14.591 18.3327 18.3327 14.591 18.3327 9.99935C18.3327 5.40768 14.591 1.66602 9.99935 1.66602ZM12.7993 11.916C13.041 12.1577 13.041 12.5577 12.7993 12.7993C12.6743 12.9243 12.516 12.9827 12.3577 12.9827C12.1993 12.9827 12.041 12.9243 11.916 12.7993L9.99935 10.8827L8.08268 12.7993C7.95768 12.9243 7.79935 12.9827 7.64102 12.9827C7.48268 12.9827 7.32435 12.9243 7.19935 12.7993C6.95768 12.5577 6.95768 12.1577 7.19935 11.916L9.11602 9.99935L7.19935 8.08268C6.95768 7.84102 6.95768 7.44102 7.19935 7.19935C7.44102 6.95768 7.84102 6.95768 8.08268 7.19935L9.99935 9.11602L11.916 7.19935C12.1577 6.95768 12.5577 6.95768 12.7993 7.19935C13.041 7.44102 13.041 7.84102 12.7993 8.08268L10.8827 9.99935L12.7993 11.916Z" fill="#FAFBFC"/>
</svg>
