<svg width="25" height="25" viewBox="0 0 25 25" fill="none" xmlns="http://www.w3.org/2000/svg">
<path d="M9.8984 4.4346C9.58201 3.64365 8.81595 3.125 7.96407 3.125H5.09868C4.00865 3.125 3.125 4.00843 3.125 5.09847C3.125 14.3638 10.6362 21.875 19.9015 21.875C20.9916 21.875 21.875 20.9913 21.875 19.9012L21.8755 17.0354C21.8755 16.1835 21.357 15.4176 20.566 15.1012L17.8197 14.0031C17.1092 13.7189 16.3003 13.8468 15.7124 14.3367L15.0037 14.9278C14.1759 15.6176 12.9579 15.5627 12.196 14.8008L10.2002 12.8032C9.43832 12.0413 9.38201 10.8243 10.0718 9.99655L10.6628 9.28781C11.1527 8.69995 11.2818 7.89079 10.9976 7.1803L9.8984 4.4346Z" stroke="#31DA78" stroke-width="2" stroke-linecap="round" stroke-linejoin="round"/>
</svg>
