<svg width="50" height="50" viewBox="0 0 50 50" fill="none" xmlns="http://www.w3.org/2000/svg">
<rect x="1" y="1" width="48" height="48" rx="7" fill="#F1F1F1"/>
<rect x="1" y="1" width="48" height="48" rx="7" stroke="#285D8F" stroke-width="2" stroke-dasharray="20 20"/>
<path d="M12.8325 34.0546L12.8067 34.0804C12.4579 33.3183 12.2384 32.4529 12.1479 31.4971C12.2384 32.44 12.4838 33.2925 12.8325 34.0546Z" fill="#7797B5"/>
<path d="M21.1249 22.9076C22.8228 22.9076 24.1991 21.5313 24.1991 19.8334C24.1991 18.1356 22.8228 16.7593 21.1249 16.7593C19.4271 16.7593 18.0508 18.1356 18.0508 19.8334C18.0508 21.5313 19.4271 22.9076 21.1249 22.9076Z" fill="#7797B5"/>
<path d="M30.4122 12.0835H19.5881C14.8864 12.0835 12.0835 14.8864 12.0835 19.5881V30.4122C12.0835 31.8202 12.3289 33.0472 12.8068 34.0806C13.9177 36.5347 16.2943 37.9168 19.5881 37.9168H30.4122C35.1139 37.9168 37.9168 35.1139 37.9168 30.4122V27.4543V19.5881C37.9168 14.8864 35.1139 12.0835 30.4122 12.0835ZM35.8114 25.646C34.8039 24.7806 33.1764 24.7806 32.1689 25.646L26.7956 30.2572C25.7881 31.1227 24.1606 31.1227 23.1531 30.2572L22.7139 29.8956C21.7968 29.0947 20.3372 29.0172 19.3039 29.7147L14.4731 32.9568C14.1889 32.2335 14.021 31.3939 14.021 30.4122V19.5881C14.021 15.9456 15.9456 14.021 19.5881 14.021H30.4122C34.0547 14.021 35.9793 15.9456 35.9793 19.5881V25.7881L35.8114 25.646Z" fill="#7797B5"/>
</svg>
