<svg width="28" height="28" viewBox="0 0 28 28" fill="none" xmlns="http://www.w3.org/2000/svg">
<path d="M23.3327 6.53353C23.3327 5.88013 23.3322 5.55319 23.2051 5.30363C23.0932 5.08411 22.9154 4.90576 22.6959 4.79391C22.4463 4.66675 22.119 4.66675 21.4656 4.66675H6.53223C5.87883 4.66675 5.55246 4.66675 5.3029 4.79391C5.08337 4.90576 4.90503 5.08411 4.79317 5.30363C4.66602 5.55319 4.66602 5.88013 4.66602 6.53353V7.39366C4.66602 7.67902 4.66602 7.82181 4.69825 7.95607C4.72683 8.07512 4.77409 8.18883 4.83805 8.29321C4.91018 8.41091 5.01124 8.51197 5.21289 8.71362L11.1194 14.6202C11.3212 14.8219 11.4215 14.9223 11.4937 15.04C11.5576 15.1444 11.6055 15.2585 11.6341 15.3775C11.666 15.5104 11.666 15.6515 11.666 15.9311V21.4796C11.666 22.4797 11.666 22.98 11.8766 23.2812C12.0606 23.5442 12.3443 23.7196 12.6618 23.7665C13.0253 23.8202 13.4728 23.5968 14.3674 23.1495L15.3007 22.6829C15.6753 22.4956 15.8621 22.4016 15.9989 22.2619C16.1199 22.1383 16.2125 21.99 16.2689 21.8265C16.3326 21.6416 16.3327 21.4317 16.3327 21.0129V15.9398C16.3327 15.6544 16.3327 15.5118 16.3649 15.3775C16.3935 15.2585 16.4408 15.1444 16.5047 15.04C16.5764 14.923 16.6765 14.823 16.8756 14.6239L16.8796 14.6202L22.7861 8.71362C22.9879 8.51185 23.0882 8.41095 23.1603 8.29321C23.2243 8.18883 23.2722 8.07512 23.3008 7.95607C23.3327 7.82318 23.3327 7.68193 23.3327 7.40235V6.53353Z" stroke="#5E6A6E" stroke-width="1.5" stroke-linecap="round" stroke-linejoin="round"/>
</svg>
