<svg width="20" height="20" viewBox="0 0 20 20" fill="none" xmlns="http://www.w3.org/2000/svg">
<path d="M3.33398 6.66675H16.6673M3.33398 6.66675V14.0002C3.33398 14.9337 3.33398 15.4001 3.51564 15.7567C3.67543 16.0703 3.93021 16.3255 4.24382 16.4853C4.59999 16.6667 5.06648 16.6667 5.99808 16.6667H14.0032C14.9348 16.6667 15.4006 16.6667 15.7568 16.4853C16.0704 16.3255 16.3261 16.0703 16.4858 15.7567C16.6673 15.4005 16.6673 14.9347 16.6673 14.0031V6.66675M3.33398 6.66675V6.00024C3.33398 5.06682 3.33398 4.59976 3.51564 4.24325C3.67543 3.92964 3.93021 3.67486 4.24382 3.51507C4.60033 3.33341 5.06739 3.33341 6.00081 3.33341H6.66732M16.6673 6.66675V5.99751C16.6673 5.06591 16.6673 4.59942 16.4858 4.24325C16.3261 3.92964 16.0704 3.67486 15.7568 3.51507C15.4003 3.33341 14.9342 3.33341 14.0008 3.33341H13.334M13.334 1.66675V3.33341M13.334 3.33341H6.66732M6.66732 1.66675V3.33341" stroke="black" stroke-width="1.25" stroke-linecap="round" stroke-linejoin="round"/>
</svg>
