<svg width="16" height="16" viewBox="0 0 16 16" fill="none" xmlns="http://www.w3.org/2000/svg">
<path d="M5.33333 4.66663H3.33333C2.97971 4.66663 2.64057 4.8071 2.39052 5.05715C2.14048 5.3072 2 5.64634 2 5.99996V12C2 12.3536 2.14048 12.6927 2.39052 12.9428C2.64057 13.1928 2.97971 13.3333 3.33333 13.3333H12.6667C13.0203 13.3333 13.3594 13.1928 13.6095 12.9428C13.8595 12.6927 14 12.3536 14 12V5.99996C14 5.64634 13.8595 5.3072 13.6095 5.05715C13.3594 4.8071 13.0203 4.66663 12.6667 4.66663H10.6667M10 7.33329L8 9.33329M8 9.33329L6 7.33329M8 9.33329V2.66663" stroke="white" stroke-linecap="round" stroke-linejoin="round"/>
</svg>
