<svg width="107" height="107" viewBox="0 0 107 107" fill="none" xmlns="http://www.w3.org/2000/svg">
<g clip-path="url(#clip0_113_42809)">
<mask id="mask0_113_42809" style="mask-type:luminance" maskUnits="userSpaceOnUse" x="0" y="0" width="107" height="107">
<path d="M107 0H0V107H107V0Z" fill="white"/>
</mask>
<g mask="url(#mask0_113_42809)">
<path d="M55.462 97.7266C78.6072 97.7266 97.3704 78.9634 97.3704 55.8182C97.3704 32.6729 78.6072 13.9099 55.462 13.9099C32.3167 13.9099 13.5537 32.6729 13.5537 55.8182C13.5537 78.9634 32.3167 97.7266 55.462 97.7266Z" fill="#EAEAEA"/>
<path d="M30.1975 72.0467L47.8074 23.6909L84.9429 62.956L41.8119 82.7552C34.9029 85.9267 27.5961 79.19 30.1975 72.0467Z" fill="#F1F1F1"/>
<path d="M71.1801 38.9618C76.3071 44.4248 80.4402 49.8408 82.9779 54.1782C84.2476 56.3482 85.1129 58.2396 85.507 59.7269C85.7042 60.4705 85.7809 61.104 85.7367 61.6161C85.6928 62.1269 85.5302 62.5046 85.2595 62.7586C84.9888 63.0129 84.6014 63.1512 84.0889 63.1627C83.5753 63.1744 82.9479 63.0578 82.2178 62.8138C80.7587 62.3263 78.9258 61.3429 76.8407 59.9384C72.6727 57.1311 67.5292 52.6635 62.4018 47.2004C57.2747 41.7377 53.1416 36.3217 50.604 31.9842C49.3342 29.8143 48.469 27.9228 48.0748 26.4355C47.8776 25.6917 47.8009 25.0582 47.8451 24.5462C47.889 24.0356 48.0517 23.6578 48.3224 23.4037C48.5931 23.1496 48.9804 23.0112 49.4929 22.9996C50.0065 22.988 50.6339 23.1046 51.3637 23.3484C52.8231 23.8359 54.6561 24.8193 56.7411 26.2239C60.9091 29.0314 66.0526 33.4989 71.1801 38.9618Z" fill="#285D8F" stroke="#285D8F"/>
<mask id="mask1_113_42809" style="mask-type:alpha" maskUnits="userSpaceOnUse" x="29" y="23" width="56" height="61">
<path d="M30.1975 72.0467L47.8074 23.6909L84.9429 62.956L41.8119 82.7552C34.9029 85.9267 27.5961 79.19 30.1975 72.0467Z" fill="#E1DCEB"/>
</mask>
<g mask="url(#mask1_113_42809)">
<path fill-rule="evenodd" clip-rule="evenodd" d="M46.9812 55.8449C39.5411 46.1015 35.7768 34.4852 34.5625 26.6864L40.5537 25.7537C41.6465 32.7735 45.0962 43.3854 51.8005 52.1652C58.4412 60.8621 68.1575 67.6445 82.014 67.6445V73.7078C65.8428 73.7078 54.4844 65.671 46.9812 55.8449Z" fill="#285D8F"/>
<path fill-rule="evenodd" clip-rule="evenodd" d="M47.7802 53.9812C40.3398 44.2378 36.5756 32.6217 35.3613 24.8229L41.3524 23.8901C42.4452 30.9101 45.8949 41.5218 52.5992 50.3015C59.2403 58.9988 68.9563 65.7809 82.8128 65.7809V71.8442C66.6419 71.8442 55.2834 63.8078 47.7802 53.9812Z" fill="white"/>
<path fill-rule="evenodd" clip-rule="evenodd" d="M38.197 68.0903C30.757 58.3465 26.9925 46.7306 25.7783 38.9317L31.7695 37.999C32.8624 45.0189 36.312 55.6308 43.0162 64.4105C49.6574 73.1075 59.3733 79.8895 73.2298 79.8895V85.9529C57.0586 85.9529 45.7005 77.9164 38.197 68.0903Z" fill="white"/>
</g>
<path d="M64.2 86.67C70.1095 86.67 74.9 81.8795 74.9 75.97C74.9 70.0606 70.1095 65.27 64.2 65.27C58.2906 65.27 53.5 70.0606 53.5 75.97C53.5 81.8795 58.2906 86.67 64.2 86.67Z" fill="#4EACDF"/>
<path fill-rule="evenodd" clip-rule="evenodd" d="M68.5298 72.7233C68.9442 73.1449 68.9385 73.8222 68.5169 74.2363L63.4373 79.2296C63.0207 79.6391 62.3534 79.6391 61.9371 79.2296L59.8834 77.2112C59.4619 76.7968 59.4562 76.1195 59.8706 75.6979C60.2847 75.2767 60.962 75.271 61.3836 75.6851L62.6872 76.9662L67.0168 72.7104C67.4384 72.296 68.1157 72.3017 68.5298 72.7233Z" fill="white"/>
<path d="M85.1234 24.8842C85.7564 23.2763 86.009 21.6725 86.2733 19.9916C86.3185 19.7052 86.3638 19.4166 86.4116 19.1253L85.1234 24.8842ZM85.1234 24.8842C85.0156 25.1587 84.7043 25.2944 84.43 25.186L84.4293 25.1857C84.1547 25.079 84.0191 24.7687 84.1268 24.4946M85.1234 24.8842L84.1268 24.4946ZM84.1268 24.4946C84.731 22.9595 84.9693 21.4221 85.2115 19.8611ZM84.1268 24.4946L85.2115 19.8611ZM85.2115 19.8611C85.2582 19.5595 85.3053 19.257 85.3548 18.9535L85.2115 19.8611ZM85.9697 18.5118C86.2615 18.5599 86.4591 18.8343 86.4116 19.1253L85.3548 18.9535C85.403 18.6619 85.6783 18.4638 85.9697 18.5118Z" fill="#285D8F"/>
<path d="M85.1234 24.8842C85.7564 23.2763 86.009 21.6725 86.2733 19.9916C86.3185 19.7052 86.3638 19.4166 86.4116 19.1253M85.1234 24.8842L86.4116 19.1253M85.1234 24.8842C85.0156 25.1587 84.7043 25.2944 84.43 25.186L84.4293 25.1857C84.1547 25.079 84.0191 24.7687 84.1268 24.4946M85.1234 24.8842L84.1268 24.4946M86.4116 19.1253C86.4591 18.8343 86.2615 18.5599 85.9697 18.5118C85.6783 18.4638 85.403 18.6619 85.3548 18.9535M86.4116 19.1253L85.3548 18.9535M84.1268 24.4946C84.731 22.9595 84.9693 21.4221 85.2115 19.8611M84.1268 24.4946L85.2115 19.8611M85.2115 19.8611C85.2582 19.5595 85.3053 19.257 85.3548 18.9535M85.2115 19.8611L85.3548 18.9535" stroke="#285D8F"/>
<path d="M88.804 29.1731L88.8036 29.1732C88.5614 29.3415 88.2276 29.2809 88.0586 29.0391C87.8902 28.7982 87.9498 28.4656 88.1923 28.2971C91.7836 25.8111 95.3021 22.4634 97.9186 18.9563C98.0944 18.7203 98.4301 18.6711 98.668 18.8469C98.9044 19.0218 98.9536 19.3564 98.7778 19.5928C96.0964 23.1872 92.4873 26.6216 88.804 29.1731Z" fill="#285D8F" stroke="#285D8F"/>
<path d="M98.6886 31.5236C98.7696 31.8036 98.6069 32.0999 98.3216 32.1825C95.434 33.0075 92.2529 33.4272 89.3532 32.542C89.0707 32.4556 88.912 32.1559 88.998 31.876C89.0836 31.5958 89.3828 31.4361 89.6656 31.5226L89.666 31.5226C92.4002 32.3568 95.372 31.9159 98.0259 31.1567C98.3105 31.0762 98.6073 31.2406 98.6886 31.5236Z" fill="#285D8F" stroke="#285D8F"/>
<path d="M89.5228 39.9465C90.7047 39.9465 91.6628 38.9884 91.6628 37.8065C91.6628 36.6246 90.7047 35.6665 89.5228 35.6665C88.3409 35.6665 87.3828 36.6246 87.3828 37.8065C87.3828 38.9884 88.3409 39.9465 89.5228 39.9465Z" fill="#F0BD0A"/>
<path d="M71.6898 17.8332C72.8717 17.8332 73.8298 16.8751 73.8298 15.6932C73.8298 14.5113 72.8717 13.5532 71.6898 13.5532C70.5079 13.5532 69.5498 14.5113 69.5498 15.6932C69.5498 16.8751 70.5079 17.8332 71.6898 17.8332Z" fill="#F0BD0A"/>
<path d="M75.8069 25.1309C75.6222 24.3662 74.5343 24.3662 74.3499 25.1309L74.1106 26.1214C74.0446 26.3947 73.8313 26.6081 73.5581 26.674L72.5677 26.9131C71.803 27.0977 71.803 28.1854 72.5677 28.37L73.5581 28.6091C73.8313 28.6751 74.0446 28.8884 74.1106 29.1617L74.3499 30.1522C74.5343 30.917 75.6222 30.917 75.8069 30.1522L76.0459 29.1617C76.1119 28.8884 76.3251 28.6751 76.5983 28.6091L77.5888 28.37C78.3535 28.1854 78.3535 27.0977 77.5888 26.9131L76.5983 26.674C76.3251 26.6081 76.1119 26.3947 76.0459 26.1214L75.8069 25.1309Z" fill="#F0BD0A"/>
<path fill-rule="evenodd" clip-rule="evenodd" d="M66.6836 8.67066C66.8998 9.2206 66.6294 9.84174 66.0794 10.058C64.5094 10.6753 62.4978 12.6636 61.1546 15.1385C60.1324 17.0223 59.6355 18.9248 59.8442 20.4817C60.4723 19.5851 61.2241 18.8496 62.0966 18.3772C63.6598 17.5303 65.4439 17.6202 67.1708 18.7971C68.6799 19.8254 69.2952 21.2887 69.1322 22.7466C68.9767 24.1406 68.1264 25.4008 66.9725 26.1925C65.8016 26.996 64.2469 27.3666 62.6433 26.8755C61.7342 26.597 60.8621 26.0587 60.0643 25.2413C59.3031 28.2046 59.3306 31.9164 60.5886 35.1993C60.8001 35.7511 60.5244 36.37 59.9722 36.5815C59.4205 36.793 58.8017 36.5169 58.5905 35.9651C56.9313 31.6356 57.1467 26.691 58.4996 23.0897C58.4614 23.0202 58.4232 22.9498 58.3854 22.8785C56.962 20.1912 57.8144 16.8068 59.2739 14.1176C60.7444 11.4077 63.077 8.93916 65.2962 8.06646C65.8462 7.85018 66.4671 8.12071 66.6836 8.67066ZM60.9024 22.9057C61.7106 24.0537 62.5492 24.6085 63.27 24.8292C64.1777 25.1072 65.0626 24.9078 65.7617 24.428C66.4782 23.9363 66.9283 23.1997 67.0057 22.5089C67.0756 21.8821 66.8566 21.1725 65.9657 20.5655C64.8368 19.7961 63.9095 19.8288 63.1159 20.2589C62.3241 20.6876 61.5401 21.585 60.9024 22.9057Z" fill="#EAEAEA"/>
<path fill-rule="evenodd" clip-rule="evenodd" d="M101.225 50.5185C90.0092 46.3502 81.426 51.5336 78.6508 54.4654C77.9735 55.1805 76.845 55.2115 76.1295 54.5346C75.4144 53.8573 75.3834 52.7288 76.0607 52.0133C79.5853 48.2901 89.6186 42.3997 102.468 47.1755C103.391 47.5186 103.861 48.5451 103.518 49.4685C103.175 50.3916 102.148 50.8616 101.225 50.5185Z" fill="#F0BD0A"/>
<path fill-rule="evenodd" clip-rule="evenodd" d="M89.8148 54.2664C90.0649 54.1747 90.3284 54.0528 90.5314 53.8766C90.7725 53.6672 90.8709 53.3972 90.9365 53.1133C91.0211 52.7484 91.055 52.36 91.1577 51.9944C91.1955 51.8589 91.2686 51.8075 91.3 51.7847C91.3792 51.7273 91.4594 51.712 91.5347 51.7177C91.6242 51.7244 91.7469 51.759 91.8275 51.9131C91.8389 51.9349 91.8539 51.9684 91.8639 52.0144C91.8714 52.0483 91.876 52.1535 91.8839 52.197C91.9031 52.304 91.9195 52.411 91.9349 52.5187C91.9855 52.8768 92.0148 53.1811 92.1753 53.5099C92.3928 53.9568 92.6107 54.23 92.9064 54.3513C93.1925 54.4683 93.5345 54.4462 93.9711 54.3545C94.0128 54.3442 94.0538 54.3352 94.0945 54.3281C94.2874 54.2935 94.4715 54.4233 94.5093 54.6206C94.5471 54.8175 94.4248 55.0093 94.2339 55.0529C94.194 55.0618 94.1548 55.0703 94.1159 55.0782C93.5256 55.2283 92.8422 55.7644 92.4449 56.2338C92.3226 56.3782 92.1432 56.783 91.9605 57.0409C91.8257 57.2314 91.6738 57.3569 91.5468 57.4011C91.4612 57.4311 91.3895 57.4265 91.33 57.4115C91.2436 57.3897 91.1719 57.3416 91.117 57.2653C91.0871 57.2232 91.0596 57.1672 91.0464 57.0958C91.04 57.0612 91.0393 56.9739 91.0393 56.9343C91.0022 56.8023 90.9565 56.6739 90.9234 56.5409C90.8442 56.2238 90.6887 56.0233 90.5039 55.758C90.3309 55.5097 90.1455 55.3539 89.8737 55.2294C89.838 55.2205 89.5527 55.1488 89.4517 55.1074C89.3044 55.0471 89.2342 54.9459 89.2089 54.8913C89.1653 54.7985 89.1611 54.7179 89.1696 54.6505C89.1825 54.551 89.226 54.4658 89.303 54.3969C89.3508 54.3545 89.4221 54.3128 89.5177 54.2924C89.5916 54.2767 89.7874 54.2675 89.8148 54.2664ZM91.4897 53.7496C91.5029 53.7799 91.5172 53.8102 91.5318 53.8409C91.8507 54.4954 92.2073 54.8606 92.6403 55.0379L92.655 55.0436C92.365 55.2647 92.1028 55.5119 91.9024 55.7487C91.8197 55.8464 91.7105 56.049 91.5921 56.2566C91.4851 55.8982 91.3096 55.6449 91.0888 55.3278C90.9201 55.086 90.7436 54.9038 90.5264 54.7554C90.6951 54.6666 90.8556 54.5624 90.9958 54.4412C91.2287 54.2386 91.3827 54.0043 91.4897 53.7496Z" fill="#F0BD0A"/>
<path d="M27.7429 55.2443C27.9838 55.0274 28.0046 54.6547 27.7878 54.4122C27.572 54.1689 27.1993 54.1479 26.9578 54.3655C25.3477 55.8142 24.4299 57.6118 24.1648 59.759C24.1242 60.0821 24.3543 60.3771 24.6751 60.4181C24.9982 60.4588 25.2927 60.2291 25.3314 59.9056C25.561 58.0456 26.3503 56.4969 27.7429 55.2443Z" fill="#285D8F" stroke="#285D8F"/>
<path d="M24.3924 75.0056C24.2958 75.0028 24.154 74.9771 24.0488 74.808C24.0267 74.7738 23.9679 74.5937 23.926 74.2812C23.9042 74.1165 23.878 73.8996 23.8464 73.6389C23.6349 71.8951 23.1847 68.1808 22.2534 64.8934C21.5662 62.4663 20.6414 60.2632 19.3101 59.3576C15.5061 56.7707 11.0907 56.6922 8.50038 59.2481M24.3924 75.0056L8.50038 59.2481ZM24.3924 75.0056C24.5321 75.0081 24.6362 74.9646 24.7162 74.9051ZM24.3924 75.0056L24.7162 74.9051ZM24.7162 74.9051C24.8241 74.8237 24.9034 74.6982 24.9214 74.5213ZM24.7162 74.9051L24.9214 74.5213ZM24.9214 74.5213C24.9306 74.4239 24.9161 74.2923 24.8905 74.1539L24.9214 74.5213ZM6.38306 60.3498C6.14969 60.7504 5.94864 61.1712 5.78757 61.6092C5.70892 61.8229 5.57542 62.2848 5.60463 62.6735C5.63524 63.0983 5.84178 63.466 6.27528 63.6066C6.78238 63.7703 7.1786 63.69 7.47082 63.4796C7.74952 63.2795 7.92479 62.9542 8.0019 62.5722L8.00193 62.5719C8.07537 62.2074 8.05882 61.7754 7.99969 61.3735C7.94647 61.0118 7.85709 60.6626 7.75805 60.3916L6.38306 60.3498ZM7.08027 59.334C7.04232 59.3818 7.00491 59.43 6.96796 59.4781C7.0068 59.5256 7.04514 59.5734 7.08295 59.6219C7.1199 59.5727 7.15735 59.5242 7.19533 59.476C7.15745 59.4282 7.11908 59.3808 7.08027 59.334ZM24.5132 71.0513C24.4907 70.8954 24.4672 70.7363 24.4427 70.5737C24.4044 70.7303 24.3675 70.8868 24.332 71.0441C24.3573 71.2189 24.3815 71.389 24.4044 71.5545C24.439 71.3862 24.4753 71.2185 24.5132 71.0513ZM32.4849 53.7076C32.4847 53.7076 32.4846 53.7076 32.4845 53.7073C32.4846 53.7073 32.4844 53.7073 32.4845 53.7073L32.3711 53.8449L32.4849 53.7076ZM25.0209 73.9039L24.8437 73.8836L25.0208 73.9046C25.0208 73.9042 25.0208 73.9039 25.0209 73.9039ZM23.8974 74.9022C23.8975 74.9022 23.8977 74.9026 23.8979 74.9029C23.8982 74.9033 23.8986 74.904 23.8989 74.9047L24.0488 74.808L23.8974 74.9022ZM6.78873 62.5173C6.78656 62.5173 6.78328 62.5173 6.77857 62.5173C6.77785 62.5173 6.77707 62.5173 6.77632 62.5173C6.77632 62.5159 6.77636 62.5148 6.77639 62.5141C6.7857 62.3457 6.84052 62.1596 6.88097 62.0447C6.87793 62.1485 6.86795 62.2469 6.84976 62.3361C6.83731 62.3975 6.82654 62.442 6.81291 62.4756C6.80261 62.5012 6.79387 62.5123 6.78873 62.5173Z" fill="#285D8F"/>
<path d="M24.3924 75.0056C24.2958 75.0028 24.154 74.9771 24.0488 74.808M24.3924 75.0056L8.50038 59.2481M24.3924 75.0056C24.5321 75.0081 24.6362 74.9646 24.7162 74.9051M24.3924 75.0056L24.7162 74.9051M24.0488 74.808C24.0267 74.7738 23.9679 74.5937 23.926 74.2812C23.9042 74.1165 23.878 73.8996 23.8464 73.6389C23.6349 71.8951 23.1847 68.1808 22.2534 64.8934C21.5662 62.4663 20.6414 60.2632 19.3101 59.3576C15.5061 56.7707 11.0907 56.6922 8.50038 59.2481M24.0488 74.808L23.8989 74.9047C23.8986 74.904 23.8982 74.9033 23.8979 74.9029C23.8977 74.9026 23.8975 74.9022 23.8974 74.9022L24.0488 74.808ZM8.50038 59.2481L8.62564 59.3751M24.7162 74.9051C24.8241 74.8237 24.9034 74.6982 24.9214 74.5213M24.7162 74.9051L24.9214 74.5213M24.9214 74.5213C24.9306 74.4239 24.9161 74.2923 24.8905 74.1539L24.9214 74.5213ZM-1.90409 58.0219C-1.90412 58.0219 -1.90405 58.0219 -1.90409 58.0219ZM-1.90409 58.0219L-1.80509 58.1699M32.4845 53.7073C32.4846 53.7076 32.4847 53.7076 32.4849 53.7076L32.3711 53.8449L32.4845 53.7073ZM32.4845 53.7073C32.4844 53.7073 32.4846 53.7073 32.4845 53.7073ZM19.2098 59.5049L19.3088 59.3594M6.38306 60.3498C6.14969 60.7504 5.94864 61.1712 5.78757 61.6092C5.70892 61.8229 5.57542 62.2848 5.60463 62.6735C5.63524 63.0983 5.84178 63.466 6.27528 63.6066C6.78238 63.7703 7.1786 63.69 7.47082 63.4796C7.74952 63.2795 7.92479 62.9542 8.0019 62.5722L8.00193 62.5719C8.07537 62.2074 8.05882 61.7754 7.99969 61.3735C7.94647 61.0118 7.85709 60.6626 7.75805 60.3916L6.38306 60.3498ZM7.08027 59.334C7.04232 59.3818 7.00491 59.43 6.96796 59.4781C7.0068 59.5256 7.04514 59.5734 7.08295 59.6219C7.1199 59.5727 7.15735 59.5242 7.19533 59.476C7.15745 59.4282 7.11908 59.3808 7.08027 59.334ZM24.5132 71.0513C24.4907 70.8954 24.4672 70.7363 24.4427 70.5737C24.4044 70.7303 24.3675 70.8868 24.332 71.0441C24.3573 71.2189 24.3815 71.389 24.4044 71.5545C24.439 71.3862 24.4753 71.2185 24.5132 71.0513ZM25.0209 73.9039L24.8437 73.8836L25.0208 73.9046C25.0208 73.9042 25.0208 73.9039 25.0209 73.9039ZM6.78873 62.5173C6.78656 62.5173 6.78328 62.5173 6.77857 62.5173C6.77785 62.5173 6.77707 62.5173 6.77632 62.5173C6.77632 62.5159 6.77636 62.5148 6.77639 62.5141C6.7857 62.3457 6.84052 62.1596 6.88097 62.0447C6.87793 62.1485 6.86795 62.2469 6.84976 62.3361C6.83731 62.3975 6.82654 62.442 6.81291 62.4756C6.80261 62.5012 6.79387 62.5123 6.78873 62.5173Z" stroke="#285D8F"/>
</g>
</g>
<defs>
<clipPath id="clip0_113_42809">
<rect width="107" height="107" fill="white"/>
</clipPath>
</defs>
</svg>
