<svg width="16" height="17" viewBox="0 0 16 17" fill="none" xmlns="http://www.w3.org/2000/svg">
<path d="M8.00065 15.6673C4.04732 15.6673 0.833984 12.454 0.833984 8.50065C0.833984 4.54732 4.04732 1.33398 8.00065 1.33398C11.954 1.33398 15.1673 4.54732 15.1673 8.50065C15.1673 12.454 11.954 15.6673 8.00065 15.6673ZM8.00065 2.33398C4.60065 2.33398 1.83398 5.10065 1.83398 8.50065C1.83398 11.9007 4.60065 14.6673 8.00065 14.6673C11.4007 14.6673 14.1673 11.9007 14.1673 8.50065C14.1673 5.10065 11.4007 2.33398 8.00065 2.33398Z" fill="#FF4141"/>
<path d="M8 9.66732C7.72667 9.66732 7.5 9.44065 7.5 9.16732V5.83398C7.5 5.56065 7.72667 5.33398 8 5.33398C8.27333 5.33398 8.5 5.56065 8.5 5.83398V9.16732C8.5 9.44065 8.27333 9.66732 8 9.66732Z" fill="#FF4141"/>
<path d="M8.00065 11.8339C7.91398 11.8339 7.82732 11.8139 7.74732 11.7806C7.66732 11.7472 7.59398 11.7006 7.52732 11.6406C7.46732 11.5739 7.42065 11.5072 7.38732 11.4206C7.35398 11.3406 7.33398 11.2539 7.33398 11.1672C7.33398 11.0806 7.35398 10.9939 7.38732 10.9139C7.42065 10.8339 7.46732 10.7606 7.52732 10.6939C7.59398 10.6339 7.66732 10.5872 7.74732 10.5539C7.90732 10.4872 8.09398 10.4872 8.25398 10.5539C8.33398 10.5872 8.40732 10.6339 8.47398 10.6939C8.53398 10.7606 8.58065 10.8339 8.61398 10.9139C8.64732 10.9939 8.66732 11.0806 8.66732 11.1672C8.66732 11.2539 8.64732 11.3406 8.61398 11.4206C8.58065 11.5072 8.53398 11.5739 8.47398 11.6406C8.40732 11.7006 8.33398 11.7472 8.25398 11.7806C8.17398 11.8139 8.08732 11.8339 8.00065 11.8339Z" fill="#FF4141"/>
</svg>
