<svg width="20" height="20" viewBox="0 0 20 20" fill="none" xmlns="http://www.w3.org/2000/svg">
<g clip-path="url(#clip0_740_26532)">
<path d="M3.33301 5.83464C3.33301 5.39261 3.5086 4.96868 3.82116 4.65612C4.13372 4.34356 4.55765 4.16797 4.99967 4.16797H14.9997C15.4417 4.16797 15.8656 4.34356 16.1782 4.65612C16.4907 4.96868 16.6663 5.39261 16.6663 5.83464V15.8346C16.6663 16.2767 16.4907 16.7006 16.1782 17.0131C15.8656 17.3257 15.4417 17.5013 14.9997 17.5013H4.99967C4.55765 17.5013 4.13372 17.3257 3.82116 17.0131C3.5086 16.7006 3.33301 16.2767 3.33301 15.8346V5.83464Z" stroke="#2C6B8C" stroke-opacity="0.9" stroke-width="1.25" stroke-linecap="round" stroke-linejoin="round"/>
<path d="M13.333 2.5V5.83333" stroke="#2C6B8C" stroke-opacity="0.9" stroke-width="1.25" stroke-linecap="round" stroke-linejoin="round"/>
<path d="M6.66699 2.5V5.83333" stroke="#2C6B8C" stroke-opacity="0.9" stroke-width="1.25" stroke-linecap="round" stroke-linejoin="round"/>
<path d="M3.33301 9.16797H16.6663" stroke="#2C6B8C" stroke-opacity="0.9" stroke-width="1.25" stroke-linecap="round" stroke-linejoin="round"/>
</g>
<defs>
<clipPath id="clip0_740_26532">
<rect width="20" height="20" fill="white"/>
</clipPath>
</defs>
</svg>
