<svg width="91" height="18" viewBox="0 0 91 18" fill="none" xmlns="http://www.w3.org/2000/svg">
<path d="M3.84104 11.6762C3.91465 11.3484 3.78082 10.88 3.54663 10.6458L1.92068 9.01984C1.41215 8.51131 1.21141 7.96933 1.35862 7.50094C1.51252 7.03256 1.98759 6.71138 2.69685 6.59094L4.7845 6.243C5.0856 6.18947 5.45362 5.92183 5.59413 5.64749L6.74501 3.33903C7.07957 2.67661 7.53457 2.30859 8.02972 2.30859C8.52487 2.30859 8.97987 2.67661 9.31442 3.33903L10.4653 5.64749C10.5523 5.82146 10.733 5.98874 10.927 6.10249L3.7206 13.3089C3.62693 13.4026 3.46634 13.3156 3.4931 13.1817L3.84104 11.6762Z" fill="#F0BD0A"/>
<path d="M12.5124 10.6449C12.2715 10.8857 12.1377 11.3474 12.2179 11.6753L12.6796 13.6893C12.8737 14.5257 12.7532 15.1547 12.3384 15.4558C12.1711 15.5762 11.9704 15.6365 11.7362 15.6365C11.3949 15.6365 10.9935 15.5093 10.5518 15.2484L8.59133 14.0841C8.28354 13.9035 7.77501 13.9035 7.46721 14.0841L5.5067 15.2484C4.76398 15.6833 4.12832 15.7569 3.72016 15.4558C3.56626 15.3421 3.45251 15.1882 3.37891 14.9874L11.5154 6.85096C11.8232 6.54316 12.2581 6.40265 12.6796 6.47625L13.3554 6.59C14.0647 6.71044 14.5398 7.03162 14.6937 7.5C14.8409 7.96838 14.6401 8.51037 14.1316 9.0189L12.5124 10.6449Z" fill="#F0BD0A"/>
<path d="M22.5764 11.6762C22.65 11.3484 22.5162 10.88 22.282 10.6458L20.656 9.01984C20.1475 8.51131 19.9468 7.96933 20.094 7.50094C20.2479 7.03256 20.7229 6.71138 21.4322 6.59094L23.5199 6.243C23.821 6.18947 24.189 5.92183 24.3295 5.64749L25.4804 3.33903C25.8149 2.67661 26.2699 2.30859 26.7651 2.30859C27.2602 2.30859 27.7152 2.67661 28.0498 3.33903L29.2007 5.64749C29.2876 5.82146 29.4683 5.98874 29.6623 6.10249L22.456 13.3089C22.3623 13.4026 22.2017 13.3156 22.2285 13.1817L22.5764 11.6762Z" fill="#F0BD0A"/>
<path d="M31.2477 10.6449C31.0068 10.8857 30.873 11.3474 30.9533 11.6753L31.415 13.6893C31.609 14.5257 31.4886 15.1547 31.0737 15.4558C30.9065 15.5762 30.7057 15.6365 30.4715 15.6365C30.1303 15.6365 29.7288 15.5093 29.2872 15.2484L27.3267 14.0841C27.0189 13.9035 26.5104 13.9035 26.2026 14.0841L24.2421 15.2484C23.4993 15.6833 22.8637 15.7569 22.4555 15.4558C22.3016 15.3421 22.1879 15.1882 22.1143 14.9874L30.2507 6.85096C30.5585 6.54316 30.9934 6.40265 31.415 6.47625L32.0908 6.59C32.8001 6.71044 33.2751 7.03162 33.429 7.5C33.5762 7.96838 33.3755 8.51037 32.867 9.0189L31.2477 10.6449Z" fill="#F0BD0A"/>
<path d="M41.3117 11.6762C41.3854 11.3484 41.2515 10.88 41.0173 10.6458L39.3914 9.01984C38.8829 8.51131 38.6821 7.96933 38.8293 7.50094C38.9832 7.03256 39.4583 6.71138 40.1676 6.59094L42.2552 6.243C42.5563 6.18947 42.9243 5.92183 43.0648 5.64749L44.2157 3.33903C44.5503 2.67661 45.0053 2.30859 45.5004 2.30859C45.9956 2.30859 46.4506 2.67661 46.7851 3.33903L47.936 5.64749C48.023 5.82146 48.2037 5.98874 48.3977 6.10249L41.1913 13.3089C41.0976 13.4026 40.937 13.3156 40.9638 13.1817L41.3117 11.6762Z" fill="#F0BD0A"/>
<path d="M49.9831 10.6449C49.7422 10.8857 49.6084 11.3474 49.6886 11.6753L50.1503 13.6893C50.3444 14.5257 50.2239 15.1547 49.8091 15.4558C49.6418 15.5762 49.4411 15.6365 49.2069 15.6365C48.8656 15.6365 48.4642 15.5093 48.0225 15.2484L46.062 14.0841C45.7542 13.9035 45.2457 13.9035 44.9379 14.0841L42.9774 15.2484C42.2347 15.6833 41.599 15.7569 41.1909 15.4558C41.037 15.3421 40.9232 15.1882 40.8496 14.9874L48.9861 6.85096C49.2939 6.54316 49.7288 6.40265 50.1503 6.47625L50.8261 6.59C51.5354 6.71044 52.0105 7.03162 52.1644 7.5C52.3116 7.96838 52.1109 8.51037 51.6023 9.0189L49.9831 10.6449Z" fill="#F0BD0A"/>
<path d="M60.0471 11.6762C60.1207 11.3484 59.9869 10.88 59.7527 10.6458L58.1267 9.01984C57.6182 8.51131 57.4175 7.96933 57.5647 7.50094C57.7186 7.03256 58.1936 6.71138 58.9029 6.59094L60.9906 6.243C61.2917 6.18947 61.6597 5.92183 61.8002 5.64749L62.9511 3.33903C63.2856 2.67661 63.7406 2.30859 64.2358 2.30859C64.7309 2.30859 65.1859 2.67661 65.5205 3.33903L66.6714 5.64749C66.7583 5.82146 66.939 5.98874 67.1331 6.10249L59.9267 13.3089C59.833 13.4026 59.6724 13.3156 59.6992 13.1817L60.0471 11.6762Z" fill="#F0BD0A"/>
<path d="M68.7184 10.6449C68.4775 10.8857 68.3437 11.3474 68.424 11.6753L68.8857 13.6893C69.0797 14.5257 68.9593 15.1547 68.5444 15.4558C68.3772 15.5762 68.1764 15.6365 67.9422 15.6365C67.601 15.6365 67.1995 15.5093 66.7579 15.2484L64.7974 14.0841C64.4896 13.9035 63.9811 13.9035 63.6733 14.0841L61.7128 15.2484C60.97 15.6833 60.3344 15.7569 59.9262 15.4558C59.7723 15.3421 59.6586 15.1882 59.585 14.9874L67.7214 6.85096C68.0292 6.54316 68.4641 6.40265 68.8857 6.47625L69.5615 6.59C70.2708 6.71044 70.7458 7.03162 70.8997 7.5C71.0469 7.96838 70.8462 8.51037 70.3377 9.0189L68.7184 10.6449Z" fill="#F0BD0A"/>
<path d="M78.7825 11.6762C78.8561 11.3484 78.7222 10.88 78.488 10.6458L76.8621 9.01984C76.3536 8.51131 76.1528 7.96933 76.3 7.50094C76.4539 7.03256 76.929 6.71138 77.6383 6.59094L79.7259 6.243C80.027 6.18947 80.395 5.92183 80.5355 5.64749L81.6864 3.33903C82.021 2.67661 82.476 2.30859 82.9711 2.30859C83.4663 2.30859 83.9213 2.67661 84.2558 3.33903L85.4067 5.64749C85.4937 5.82146 85.6744 5.98874 85.8684 6.10249L78.662 13.3089C78.5683 13.4026 78.4077 13.3156 78.4345 13.1817L78.7825 11.6762Z" fill="#F0BD0A"/>
<path d="M87.4538 10.6449C87.2129 10.8857 87.0791 11.3474 87.1594 11.6753L87.621 13.6893C87.8151 14.5257 87.6946 15.1547 87.2798 15.4558C87.1125 15.5762 86.9118 15.6365 86.6776 15.6365C86.3363 15.6365 85.9349 15.5093 85.4932 15.2484L83.5327 14.0841C83.2249 13.9035 82.7164 13.9035 82.4086 14.0841L80.4481 15.2484C79.7054 15.6833 79.0697 15.7569 78.6616 15.4558C78.5077 15.3421 78.3939 15.1882 78.3203 14.9874L86.4568 6.85096C86.7646 6.54316 87.1995 6.40265 87.621 6.47625L88.2968 6.59C89.0061 6.71044 89.4812 7.03162 89.6351 7.5C89.7823 7.96838 89.5816 8.51037 89.073 9.0189L87.4538 10.6449Z" fill="#C2C2C2"/>
</svg>
