<svg width="20" height="20" viewBox="0 0 20 20" fill="none" xmlns="http://www.w3.org/2000/svg">
<g clip-path="url(#clip0_740_26554)">
<path d="M7.50033 4.16797H5.83366C5.39163 4.16797 4.96771 4.34356 4.65515 4.65612C4.34259 4.96868 4.16699 5.39261 4.16699 5.83464V15.8346C4.16699 16.2767 4.34259 16.7006 4.65515 17.0131C4.96771 17.3257 5.39163 17.5013 5.83366 17.5013H14.167C14.609 17.5013 15.0329 17.3257 15.3455 17.0131C15.6581 16.7006 15.8337 16.2767 15.8337 15.8346V5.83464C15.8337 5.39261 15.6581 4.96868 15.3455 4.65612C15.0329 4.34356 14.609 4.16797 14.167 4.16797H12.5003" stroke="#68ACD1" stroke-width="1.25" stroke-linecap="round" stroke-linejoin="round"/>
<path d="M7.5 4.16667C7.5 3.72464 7.6756 3.30072 7.98816 2.98816C8.30072 2.67559 8.72464 2.5 9.16667 2.5H10.8333C11.2754 2.5 11.6993 2.67559 12.0118 2.98816C12.3244 3.30072 12.5 3.72464 12.5 4.16667C12.5 4.60869 12.3244 5.03262 12.0118 5.34518C11.6993 5.65774 11.2754 5.83333 10.8333 5.83333H9.16667C8.72464 5.83333 8.30072 5.65774 7.98816 5.34518C7.6756 5.03262 7.5 4.60869 7.5 4.16667Z" stroke="#68ACD1" stroke-width="1.25" stroke-linecap="round" stroke-linejoin="round"/>
<path d="M11.6663 9.16797H9.58301C9.25149 9.16797 8.93354 9.29966 8.69912 9.53409C8.4647 9.76851 8.33301 10.0864 8.33301 10.418C8.33301 10.7495 8.4647 11.0674 8.69912 11.3019C8.93354 11.5363 9.25149 11.668 9.58301 11.668H10.4163C10.7479 11.668 11.0658 11.7997 11.3002 12.0341C11.5346 12.2685 11.6663 12.5864 11.6663 12.918C11.6663 13.2495 11.5346 13.5674 11.3002 13.8019C11.0658 14.0363 10.7479 14.168 10.4163 14.168H8.33301" stroke="#68ACD1" stroke-width="1.25" stroke-linecap="round" stroke-linejoin="round"/>
<path d="M10 14.1654V14.9987M10 8.33203V9.16536" stroke="#68ACD1" stroke-width="1.25" stroke-linecap="round" stroke-linejoin="round"/>
</g>
<defs>
<clipPath id="clip0_740_26554">
<rect width="20" height="20" fill="white"/>
</clipPath>
</defs>
</svg>
