<svg width="14" height="9" viewBox="0 0 14 9" fill="none" xmlns="http://www.w3.org/2000/svg">
<path d="M7.82311 8.20914C7.66251 8.36993 7.44464 8.46037 7.21739 8.46057H6.78311C6.55635 8.45793 6.33936 8.36786 6.17739 8.20914L0.314535 2.33485C0.260976 2.28173 0.218465 2.21853 0.189455 2.1489C0.160444 2.07926 0.145508 2.00457 0.145508 1.92914C0.145508 1.8537 0.160444 1.77902 0.189455 1.70938C0.218465 1.63975 0.260976 1.57655 0.314535 1.52342L1.12596 0.711996C1.1781 0.658781 1.24034 0.616504 1.30902 0.587642C1.37771 0.558781 1.45146 0.543915 1.52596 0.543915C1.60047 0.543915 1.67422 0.558781 1.7429 0.587642C1.81159 0.616504 1.87382 0.658781 1.92596 0.711996L7.00025 5.79771L12.0745 0.711996C12.1277 0.658437 12.1909 0.615926 12.2605 0.586916C12.3301 0.557905 12.4048 0.542969 12.4802 0.542969C12.5557 0.542969 12.6304 0.557905 12.7 0.586916C12.7696 0.615926 12.8328 0.658437 12.886 0.711996L13.686 1.52342C13.7395 1.57655 13.782 1.63975 13.811 1.70938C13.8401 1.77902 13.855 1.8537 13.855 1.92914C13.855 2.00457 13.8401 2.07926 13.811 2.1489C13.782 2.21853 13.7395 2.28173 13.686 2.33485L7.82311 8.20914Z" fill="#243742"/>
</svg>
