<svg width="21" height="21" viewBox="0 0 21 21" fill="none" xmlns="http://www.w3.org/2000/svg">
<path d="M3.47874 13.833C3.47874 14.717 3.8299 15.5647 4.45495 16.1898C5.08001 16.8148 5.92777 17.166 6.81174 17.166C7.69571 17.166 8.54347 16.8148 9.16853 16.1898C9.79359 15.5647 10.1447 14.717 10.1447 13.833C10.1447 12.949 9.79359 12.1013 9.16853 11.4762C8.54347 10.8512 7.69571 10.5 6.81174 10.5C5.92777 10.5 5.08001 10.8512 4.45495 11.4762C3.8299 12.1013 3.47874 12.949 3.47874 13.833ZM8.47874 13.833C8.48419 14.0553 8.44511 14.2764 8.36381 14.4834C8.28251 14.6903 8.16062 14.8789 8.00533 15.038C7.85005 15.1972 7.66449 15.3237 7.45959 15.41C7.25469 15.4963 7.03459 15.5408 6.81224 15.5408C6.58989 15.5408 6.36979 15.4963 6.16489 15.41C5.95999 15.3237 5.77444 15.1972 5.61915 15.038C5.46386 14.8789 5.34198 14.6903 5.26068 14.4834C5.17937 14.2764 5.1403 14.0553 5.14574 13.833C5.1564 13.3981 5.33665 12.9846 5.64802 12.6807C5.95939 12.3769 6.3772 12.2068 6.81224 12.2068C7.24729 12.2068 7.6651 12.3769 7.97646 12.6807C8.28783 12.9846 8.46809 13.3981 8.47874 13.833ZM7.00274 7.167C5.29773 7.14832 3.64804 7.77153 2.38127 8.91289C1.11449 10.0542 0.323277 11.6303 0.164741 13.328C0.0950218 14.2438 0.215312 15.1642 0.518065 16.0313C0.820819 16.8984 1.2995 17.6937 1.92409 18.3671C2.54867 19.0405 3.30568 19.5775 4.14762 19.9446C4.98956 20.3116 5.89827 20.5007 6.81674 20.5C7.17374 20.5 7.53074 20.472 7.88274 20.417C8.9433 20.2429 9.94564 19.8137 10.8034 19.1661C11.6612 18.5186 12.3487 17.6723 12.8067 16.7C13.2267 15.846 13.4557 14.911 13.4787 13.96C13.4731 13.7659 13.5355 13.5759 13.6551 13.4229C13.7747 13.2698 13.944 13.1634 14.1337 13.122L20.1457 12.029V7.167H7.00274ZM18.4787 10.638L13.8347 11.483C13.2656 11.5907 12.7521 11.8939 12.3828 12.3402C12.0136 12.7865 11.812 13.3478 11.8127 13.927C11.7935 14.6388 11.6209 15.338 11.3067 15.977C10.8064 17.0294 9.95351 17.8734 8.89597 18.3627C7.83843 18.852 6.64297 18.9557 5.51697 18.6558C4.39098 18.3559 3.40548 17.6713 2.73143 16.7208C2.05738 15.7703 1.73731 14.6138 1.82674 13.452C1.95234 12.173 2.55435 10.988 3.51323 10.1323C4.47211 9.27658 5.71773 8.81279 7.00274 8.833H18.4787V10.638ZM9.31174 4.667H7.64574V0.5H9.31174V4.667ZM11.7287 5.867L10.2697 5.061L12.2827 1.417L13.7427 2.222L11.7287 5.867ZM5.25074 5.867L3.23474 2.218L4.69474 1.417L6.70774 5.06L5.25074 5.867Z" fill="#171C1A"/>
</svg>
