<svg width="19" height="19" viewBox="0 0 19 19" fill="none" xmlns="http://www.w3.org/2000/svg">
<path d="M18.025 17.4522L13.3279 12.756C14.548 11.2639 15.1479 9.35992 15.0035 7.43792C14.8591 5.51592 13.9816 3.72293 12.5523 2.42984C11.123 1.13674 9.2514 0.442469 7.32459 0.490629C5.39778 0.53879 3.56319 1.3257 2.2003 2.68859C0.837418 4.05147 0.0505087 5.88606 0.00234802 7.81287C-0.0458127 9.73968 0.64846 11.6113 1.94156 13.0406C3.23465 14.4698 5.02764 15.3474 6.94964 15.4918C8.87164 15.6361 10.7756 15.0362 12.2677 13.8162L16.9648 18.5124L18.025 17.4522ZM7.52468 14.0124C6.3379 14.0124 5.17777 13.6604 4.191 13.0011C3.20424 12.3417 2.43517 11.4045 1.98104 10.3081C1.52692 9.21161 1.40815 8.0051 1.63974 6.84113C1.87134 5.67717 2.4429 4.60802 3.28215 3.76889C4.1214 2.92977 5.19063 2.35837 6.35464 2.12695C7.51864 1.89553 8.72513 2.01448 9.82152 2.46877C10.9179 2.92306 11.855 3.69227 12.5142 4.67913C13.1734 5.666 13.5252 6.82618 13.525 8.01297C13.5231 9.60368 12.8903 11.1287 11.7654 12.2534C10.6405 13.3781 9.1154 14.0107 7.52468 14.0124Z" fill="#758A80"/>
</svg>
