<svg width="17" height="18" viewBox="0 0 17 18" fill="none" xmlns="http://www.w3.org/2000/svg">
<path d="M4.07444 11.6762C4.14805 11.3484 4.01422 10.88 3.78003 10.6458L2.15408 9.01984C1.64555 8.51131 1.44481 7.96933 1.59202 7.50094C1.74592 7.03256 2.22099 6.71138 2.93025 6.59094L5.0179 6.243C5.319 6.18947 5.68702 5.92183 5.82753 5.64749L6.97841 3.33903C7.31297 2.67661 7.76797 2.30859 8.26312 2.30859C8.75826 2.30859 9.21326 2.67661 9.54782 3.33903L10.6987 5.64749C10.7857 5.82146 10.9664 5.98874 11.1604 6.10249L3.954 13.3089C3.86033 13.4026 3.69974 13.3156 3.7265 13.1817L4.07444 11.6762Z" fill="#C2C2C2"/>
<path d="M12.7467 10.6449C12.5058 10.8857 12.372 11.3474 12.4523 11.6753L12.914 13.6893C13.1081 14.5257 12.9876 15.1547 12.5728 15.4558C12.4055 15.5762 12.2047 15.6365 11.9706 15.6365C11.6293 15.6365 11.2278 15.5093 10.7862 15.2484L8.8257 14.0841C8.51791 13.9035 8.00938 13.9035 7.70159 14.0841L5.74107 15.2484C4.99835 15.6833 4.36269 15.7569 3.95453 15.4558C3.80063 15.3421 3.68688 15.1882 3.61328 14.9874L11.7497 6.85096C12.0575 6.54316 12.4925 6.40265 12.914 6.47625L13.5898 6.59C14.2991 6.71044 14.7742 7.03162 14.9281 7.5C15.0753 7.96838 14.8745 8.51037 14.366 9.0189L12.7467 10.6449Z" fill="#C2C2C2"/>
</svg>
