<svg width="15" height="16" viewBox="0 0 15 16" fill="none" xmlns="http://www.w3.org/2000/svg">
<path d="M7.5 1.75C4.05625 1.75 1.25 4.55625 1.25 8C1.25 11.4438 4.05625 14.25 7.5 14.25C10.9438 14.25 13.75 11.4438 13.75 8C13.75 4.55625 10.9438 1.75 7.5 1.75ZM9.6 9.4375C9.78125 9.61875 9.78125 9.91875 9.6 10.1C9.50625 10.1937 9.3875 10.2375 9.26875 10.2375C9.15 10.2375 9.03125 10.1937 8.9375 10.1L7.5 8.6625L6.0625 10.1C5.96875 10.1937 5.85 10.2375 5.73125 10.2375C5.6125 10.2375 5.49375 10.1937 5.4 10.1C5.21875 9.91875 5.21875 9.61875 5.4 9.4375L6.8375 8L5.4 6.5625C5.21875 6.38125 5.21875 6.08125 5.4 5.9C5.58125 5.71875 5.88125 5.71875 6.0625 5.9L7.5 7.3375L8.9375 5.9C9.11875 5.71875 9.41875 5.71875 9.6 5.9C9.78125 6.08125 9.78125 6.38125 9.6 6.5625L8.1625 8L9.6 9.4375Z" fill="#EC9A88"/>
</svg>
