<svg width="17" height="18" viewBox="0 0 17 18" fill="none" xmlns="http://www.w3.org/2000/svg">
<path d="M4.0178 11.6762C4.09141 11.3484 3.95758 10.88 3.72339 10.6458L2.09744 9.01984C1.58891 8.51131 1.38817 7.96933 1.53538 7.50094C1.68927 7.03256 2.16435 6.71138 2.87361 6.59094L4.96126 6.243C5.26236 6.18947 5.63037 5.92183 5.77089 5.64749L6.92177 3.33903C7.25633 2.67661 7.71133 2.30859 8.20648 2.30859C8.70162 2.30859 9.15662 2.67661 9.49118 3.33903L10.6421 5.64749C10.729 5.82146 10.9097 5.98874 11.1038 6.10249L3.89736 13.3089C3.80369 13.4026 3.6431 13.3156 3.66986 13.1817L4.0178 11.6762Z" fill="#C2C2C2"/>
<path d="M12.6891 10.6468C12.4482 10.8877 12.3144 11.3494 12.3947 11.6772L12.8564 13.6913C13.0504 14.5277 12.93 15.1567 12.5151 15.4578C12.3479 15.5782 12.1471 15.6384 11.9129 15.6384C11.5717 15.6384 11.1702 15.5113 10.7286 15.2503L8.76809 14.0861C8.46029 13.9054 7.95176 13.9054 7.64397 14.0861L5.68346 15.2503C4.94074 15.6853 4.30508 15.7589 3.89691 15.4578C3.74302 15.344 3.62927 15.1901 3.55566 14.9894L11.6921 6.85291C11.9999 6.54512 12.4348 6.4046 12.8564 6.4782L13.5322 6.59195C14.2415 6.7124 14.7165 7.03357 14.8704 7.50195C15.0176 7.97034 14.8169 8.51232 14.3084 9.02085L12.6891 10.6468Z" fill="#C2C2C2"/>
</svg>
