<svg width="21" height="20" viewBox="0 0 21 20" fill="none" xmlns="http://www.w3.org/2000/svg">
<path d="M18.6163 9.22631C18.5747 8.80131 18.2163 8.48463 17.7913 8.48463H11.4997C11.0413 8.48463 10.6663 8.85963 10.6663 9.31796V10.743C10.6663 11.2013 11.0413 11.5763 11.4997 11.5763H15.258C15.1663 12.343 14.6663 13.5013 13.558 14.2763C12.8497 14.768 11.908 15.1096 10.6663 15.1096C10.608 15.1096 10.558 15.1096 10.4997 15.1013C8.37468 15.0346 6.57468 13.6096 5.92468 11.6513C5.74968 11.1263 5.64968 10.5763 5.64968 10.0013C5.64968 9.4263 5.74968 8.86796 5.91634 8.35129C5.96634 8.20129 6.02468 8.05131 6.09134 7.90131C6.85801 6.17631 8.53301 4.95964 10.4997 4.90131C10.5497 4.89297 10.608 4.89296 10.6663 4.89296C11.858 4.89296 12.7497 5.28462 13.3747 5.71796C13.6997 5.94296 14.133 5.89296 14.4163 5.61796L15.5747 4.48464C15.9413 4.12631 15.908 3.51796 15.4913 3.21796C14.1663 2.24296 12.5497 1.66797 10.6663 1.66797C10.608 1.66797 10.558 1.66798 10.4997 1.67631C7.30801 1.73464 4.56634 3.58464 3.22467 6.25964C2.65801 7.39298 2.33301 8.65964 2.33301 10.0013C2.33301 11.343 2.65801 12.6096 3.22467 13.743H3.23301C4.57468 16.418 7.31634 18.268 10.4997 18.3263C10.558 18.3346 10.608 18.3346 10.6663 18.3346C12.9163 18.3346 14.808 17.593 16.183 16.318C17.758 14.8596 18.6663 12.7263 18.6663 10.1846C18.6663 9.8263 18.6497 9.51798 18.6163 9.22631Z" fill="#FAFBFC"/>
</svg>
