<svg width="21" height="20" viewBox="0 0 21 20" fill="none" xmlns="http://www.w3.org/2000/svg">
<path d="M10.5003 1.66797C5.90866 1.66797 2.16699 5.40964 2.16699 10.0013C2.16699 14.593 5.90866 18.3346 10.5003 18.3346C15.092 18.3346 18.8337 14.593 18.8337 10.0013C18.8337 5.40964 15.092 1.66797 10.5003 1.66797ZM14.4837 8.08464L9.75866 12.8096C9.64199 12.9263 9.48366 12.993 9.31699 12.993C9.15033 12.993 8.99199 12.9263 8.87533 12.8096L6.51699 10.4513C6.27533 10.2096 6.27533 9.80964 6.51699 9.56797C6.75866 9.3263 7.15866 9.3263 7.40033 9.56797L9.31699 11.4846L13.6003 7.2013C13.842 6.95964 14.242 6.95964 14.4837 7.2013C14.7253 7.44297 14.7253 7.83464 14.4837 8.08464Z" fill="#FAFBFC"/>
</svg>
