<svg width="17" height="18" viewBox="0 0 17 18" fill="none" xmlns="http://www.w3.org/2000/svg">
<path d="M3.84104 11.6762C3.91465 11.3484 3.78082 10.88 3.54663 10.6458L1.92068 9.01984C1.41215 8.51131 1.21141 7.96933 1.35862 7.50094C1.51252 7.03256 1.98759 6.71138 2.69685 6.59094L4.7845 6.243C5.0856 6.18947 5.45362 5.92183 5.59413 5.64749L6.74501 3.33903C7.07957 2.67661 7.53457 2.30859 8.02972 2.30859C8.52487 2.30859 8.97987 2.67661 9.31442 3.33903L10.4653 5.64749C10.5523 5.82146 10.733 5.98874 10.927 6.10249L3.7206 13.3089C3.62693 13.4026 3.46634 13.3156 3.4931 13.1817L3.84104 11.6762Z" fill="#F0BD0A"/>
<path d="M12.5124 10.6449C12.2715 10.8857 12.1377 11.3474 12.2179 11.6753L12.6796 13.6893C12.8737 14.5257 12.7532 15.1547 12.3384 15.4558C12.1711 15.5762 11.9704 15.6365 11.7362 15.6365C11.3949 15.6365 10.9935 15.5093 10.5518 15.2484L8.59133 14.0841C8.28354 13.9035 7.77501 13.9035 7.46721 14.0841L5.5067 15.2484C4.76398 15.6833 4.12832 15.7569 3.72016 15.4558C3.56626 15.3421 3.45251 15.1882 3.37891 14.9874L11.5154 6.85096C11.8232 6.54316 12.2581 6.40265 12.6796 6.47625L13.3554 6.59C14.0647 6.71044 14.5398 7.03162 14.6937 7.5C14.8409 7.96838 14.6401 8.51037 14.1316 9.0189L12.5124 10.6449Z" fill="#F0BD0A"/>
</svg>
