<svg width="21" height="20" viewBox="0 0 21 20" fill="none" xmlns="http://www.w3.org/2000/svg">
<path d="M10.5003 1.66797C5.90033 1.66797 2.16699 5.4013 2.16699 10.0013C2.16699 14.6013 5.90033 18.3346 10.5003 18.3346C15.1003 18.3346 18.8337 14.6013 18.8337 10.0013C18.8337 5.4013 15.1003 1.66797 10.5003 1.66797ZM13.8587 10.443L11.3587 12.943C11.2337 13.068 11.0753 13.1263 10.917 13.1263C10.7587 13.1263 10.6003 13.068 10.4753 12.943C10.2337 12.7013 10.2337 12.3013 10.4753 12.0596L11.9087 10.6263H7.58366C7.24199 10.6263 6.95866 10.343 6.95866 10.0013C6.95866 9.65964 7.24199 9.3763 7.58366 9.3763H11.9087L10.4753 7.94297C10.2337 7.7013 10.2337 7.3013 10.4753 7.05964C10.717 6.81797 11.117 6.81797 11.3587 7.05964L13.8587 9.55964C14.1003 9.8013 14.1003 10.2013 13.8587 10.443Z" fill="#FAFBFC"/>
</svg>
