<svg width="17" height="18" viewBox="0 0 17 18" fill="none" xmlns="http://www.w3.org/2000/svg">
<path d="M4.0764 11.6762C4.15 11.3484 4.01618 10.88 3.78199 10.6458L2.15603 9.01984C1.6475 8.51131 1.44677 7.96933 1.59397 7.50094C1.74787 7.03256 2.22294 6.71138 2.93221 6.59094L5.01985 6.243C5.32095 6.18947 5.68897 5.92183 5.82948 5.64749L6.98037 3.33903C7.31492 2.67661 7.76992 2.30859 8.26507 2.30859C8.76022 2.30859 9.21522 2.67661 9.54978 3.33903L10.7007 5.64749C10.7876 5.82146 10.9683 5.98874 11.1623 6.10249L3.95596 13.3089C3.86228 13.4026 3.70169 13.3156 3.72846 13.1817L4.0764 11.6762Z" fill="#C2C2C2"/>
<path d="M12.7477 10.6468C12.5068 10.8877 12.373 11.3494 12.4533 11.6772L12.915 13.6913C13.109 14.5277 12.9886 15.1567 12.5737 15.4578C12.4065 15.5782 12.2057 15.6384 11.9715 15.6384C11.6303 15.6384 11.2288 15.5113 10.7872 15.2503L8.82668 14.0861C8.51889 13.9054 8.01036 13.9054 7.70256 14.0861L5.74205 15.2503C4.99933 15.6853 4.36367 15.7589 3.95551 15.4578C3.80161 15.344 3.68786 15.1901 3.61426 14.9894L11.7507 6.85291C12.0585 6.54512 12.4934 6.4046 12.915 6.4782L13.5908 6.59195C14.3001 6.7124 14.7751 7.03357 14.929 7.50195C15.0762 7.97034 14.8755 8.51232 14.367 9.02085L12.7477 10.6468Z" fill="#C2C2C2"/>
</svg>
