<svg width="17" height="18" viewBox="0 0 17 18" fill="none" xmlns="http://www.w3.org/2000/svg">
<path d="M4.0178 11.6762C4.09141 11.3484 3.95758 10.88 3.72339 10.6458L2.09744 9.01984C1.58891 8.51131 1.38817 7.96933 1.53538 7.50094C1.68927 7.03256 2.16435 6.71138 2.87361 6.59094L4.96126 6.243C5.26236 6.18947 5.63037 5.92183 5.77089 5.64749L6.92177 3.33903C7.25633 2.67661 7.71133 2.30859 8.20648 2.30859C8.70162 2.30859 9.15662 2.67661 9.49118 3.33903L10.6421 5.64749C10.729 5.82146 10.9097 5.98874 11.1038 6.10249L3.89736 13.3089C3.80369 13.4026 3.6431 13.3156 3.66986 13.1817L4.0178 11.6762Z" fill="#F0BD0A"/>
<path d="M12.6891 10.6449C12.4482 10.8857 12.3144 11.3474 12.3947 11.6753L12.8564 13.6893C13.0504 14.5257 12.93 15.1547 12.5151 15.4558C12.3479 15.5762 12.1471 15.6365 11.9129 15.6365C11.5717 15.6365 11.1702 15.5093 10.7286 15.2484L8.76809 14.0841C8.46029 13.9035 7.95176 13.9035 7.64397 14.0841L5.68346 15.2484C4.94074 15.6833 4.30508 15.7569 3.89691 15.4558C3.74302 15.3421 3.62927 15.1882 3.55566 14.9874L11.6921 6.85096C11.9999 6.54316 12.4348 6.40265 12.8564 6.47625L13.5322 6.59C14.2415 6.71044 14.7165 7.03162 14.8704 7.5C15.0176 7.96838 14.8169 8.51037 14.3084 9.0189L12.6891 10.6449Z" fill="#F0BD0A"/>
</svg>
