<svg width="17" height="16" viewBox="0 0 17 16" fill="none" xmlns="http://www.w3.org/2000/svg">
<path d="M3.84104 10.6654C3.91465 10.3387 3.78082 9.87203 3.54663 9.6387L1.92068 8.0187C1.41215 7.51203 1.21141 6.97203 1.35862 6.50536C1.51252 6.0387 1.98759 5.7187 2.69685 5.5987L4.7845 5.25203C5.0856 5.1987 5.45362 4.93203 5.59413 4.6587L6.74501 2.3587C7.07957 1.6987 7.53457 1.33203 8.02972 1.33203C8.52487 1.33203 8.97987 1.6987 9.31442 2.3587L10.4653 4.6587C10.5523 4.83203 10.733 4.9987 10.927 5.11203L3.7206 12.292C3.62693 12.3854 3.46634 12.2987 3.4931 12.1654L3.84104 10.6654Z" fill="#F0BD0A"/>
<path d="M12.5124 9.64123C12.2715 9.88123 12.1377 10.3412 12.2179 10.6679L12.6796 12.6746C12.8737 13.5079 12.7532 14.1346 12.3384 14.4346C12.1711 14.5546 11.9704 14.6146 11.7362 14.6146C11.3949 14.6146 10.9935 14.4879 10.5518 14.2279L8.59133 13.0679C8.28354 12.8879 7.77501 12.8879 7.46721 13.0679L5.5067 14.2279C4.76398 14.6612 4.12832 14.7346 3.72016 14.4346C3.56626 14.3212 3.45251 14.1679 3.37891 13.9679L11.5154 5.86123C11.8232 5.55457 12.2581 5.41457 12.6796 5.4879L13.3554 5.60123C14.0647 5.72123 14.5398 6.04123 14.6937 6.5079C14.8409 6.97457 14.6401 7.51457 14.1316 8.02123L12.5124 9.64123Z" fill="#F0BD0A"/>
</svg>
