<svg width="57" height="67" viewBox="0 0 57 67" fill="none" xmlns="http://www.w3.org/2000/svg">
<path d="M30.0818 66.6021L54.4599 52.9443C55.2408 52.5095 55.8813 51.9192 56.3245 51.2261C56.7677 50.533 56.9998 49.7586 57 48.972L57 4.78592C57 3.51662 56.3995 2.2993 55.3305 1.40176C54.2616 0.504229 52.8117 0 51.3 0L5.7 0C4.18827 0 2.73845 0.504229 1.66949 1.40176C0.600536 2.2993 0 3.51662 0 4.78592L0 48.972C0.00173187 49.7581 0.234066 50.5317 0.676456 51.2245C1.11885 51.9173 1.75768 52.508 2.5365 52.9443L26.9183 66.5931C27.3855 66.8568 27.9354 66.9984 28.4984 67C29.0614 67.0016 29.6124 66.8631 30.0818 66.6021Z" fill="#C60D0D"/>
</svg>
