<svg width="14" height="9" viewBox="0 0 14 9" fill="none" xmlns="http://www.w3.org/2000/svg">
<path d="M7.82213 8.20719C7.66154 8.36798 7.44367 8.45841 7.21642 8.45861H6.78213C6.55537 8.45598 6.33838 8.36591 6.17642 8.20719L0.313559 2.3329C0.26 2.27978 0.217489 2.21658 0.188478 2.14694C0.159467 2.07731 0.144531 2.00262 0.144531 1.92719C0.144531 1.85175 0.159467 1.77706 0.188478 1.70743C0.217489 1.63779 0.26 1.57459 0.313559 1.52147L1.12499 0.710043C1.17713 0.656827 1.23936 0.614551 1.30805 0.585689C1.37673 0.556828 1.45049 0.541962 1.52499 0.541962C1.59949 0.541962 1.67324 0.556828 1.74193 0.585689C1.81061 0.614551 1.87285 0.656827 1.92499 0.710043L6.99927 5.79576L12.0736 0.710043C12.1267 0.656484 12.1899 0.613973 12.2595 0.584962C12.3291 0.555952 12.4038 0.541016 12.4793 0.541016C12.5547 0.541016 12.6294 0.555952 12.699 0.584962C12.7687 0.613973 12.8319 0.656484 12.885 0.710043L13.685 1.52147C13.7385 1.57459 13.7811 1.63779 13.8101 1.70743C13.8391 1.77706 13.854 1.85175 13.854 1.92719C13.854 2.00262 13.8391 2.07731 13.8101 2.14694C13.7811 2.21658 13.7385 2.27978 13.685 2.3329L7.82213 8.20719Z" fill="#243742"/>
</svg>
