<svg width="21" height="20" viewBox="0 0 21 20" fill="none" xmlns="http://www.w3.org/2000/svg">
<path opacity="0.8" d="M0.501428 0.714133C0.501428 0.524733 0.576663 0.34309 0.710582 0.209164C0.844501 0.0752386 1.02613 0 1.21552 0H1.84107C2.87937 0 3.47636 0.675569 3.82198 1.34971C4.05763 1.81104 4.22759 2.37378 4.36898 2.86224H19.0722C19.2929 2.86231 19.5106 2.91352 19.7081 3.01185C19.9057 3.11017 20.0778 3.25295 20.2109 3.42897C20.344 3.60499 20.4345 3.80947 20.4754 4.02635C20.5162 4.24323 20.5062 4.46663 20.4462 4.679L18.3096 12.2131C18.1396 12.8108 17.7794 13.3369 17.2835 13.7114C16.7876 14.0859 16.1831 14.2884 15.5617 14.2884H8.30793C7.68135 14.2886 7.07208 14.0827 6.57399 13.7026C6.0759 13.3224 5.71663 12.789 5.55152 12.1845L4.63462 8.82097C4.62936 8.80589 4.6246 8.79065 4.62034 8.77526L3.14787 3.78062L3.00505 3.29929C2.86223 2.80511 2.73655 2.36806 2.54803 2.001C2.32095 1.55824 2.11243 1.42969 1.83965 1.42969H1.2141C1.02471 1.42969 0.843073 1.35445 0.709154 1.22053C0.575235 1.0866 0.5 0.904961 0.5 0.715561M5.99712 8.38963L6.92973 11.8118C7.01241 12.1139 7.19211 12.3804 7.44114 12.5703C7.69017 12.7603 7.99474 12.8631 8.30793 12.863H15.5632C15.8737 12.8626 16.1757 12.7611 16.4234 12.5737C16.671 12.3864 16.8509 12.1234 16.9357 11.8246L19.0722 4.29051H4.79029L5.99712 8.38963ZM10.5031 17.8576C10.5031 18.4258 10.2774 18.9707 9.87561 19.3725C9.47385 19.7743 8.92895 20 8.36078 20C7.79261 20 7.24771 19.7743 6.84595 19.3725C6.44419 18.9707 6.21849 18.4258 6.21849 17.8576C6.21849 17.2894 6.44419 16.7445 6.84595 16.3427C7.24771 15.9409 7.79261 15.7152 8.36078 15.7152C8.92895 15.7152 9.47385 15.9409 9.87561 16.3427C10.2774 16.7445 10.5031 17.2894 10.5031 17.8576ZM9.07487 17.8576C9.07487 17.6682 8.99964 17.4866 8.86572 17.3526C8.7318 17.2187 8.55017 17.1435 8.36078 17.1435C8.17139 17.1435 7.98975 17.2187 7.85583 17.3526C7.72192 17.4866 7.64668 17.6682 7.64668 17.8576C7.64668 18.047 7.72192 18.2286 7.85583 18.3626C7.98975 18.4965 8.17139 18.5717 8.36078 18.5717C8.55017 18.5717 8.7318 18.4965 8.86572 18.3626C8.99964 18.2286 9.07487 18.047 9.07487 17.8576ZM17.644 17.8576C17.644 18.4258 17.4183 18.9707 17.0166 19.3725C16.6148 19.7743 16.0699 20 15.5017 20C14.9336 20 14.3887 19.7743 13.9869 19.3725C13.5852 18.9707 13.3595 18.4258 13.3595 17.8576C13.3595 17.2894 13.5852 16.7445 13.9869 16.3427C14.3887 15.9409 14.9336 15.7152 15.5017 15.7152C16.0699 15.7152 16.6148 15.9409 17.0166 16.3427C17.4183 16.7445 17.644 17.2894 17.644 17.8576ZM16.2158 17.8576C16.2158 17.6682 16.1406 17.4866 16.0067 17.3526C15.8728 17.2187 15.6911 17.1435 15.5017 17.1435C15.3124 17.1435 15.1307 17.2187 14.9968 17.3526C14.8629 17.4866 14.7877 17.6682 14.7877 17.8576C14.7877 18.047 14.8629 18.2286 14.9968 18.3626C15.1307 18.4965 15.3124 18.5717 15.5017 18.5717C15.6911 18.5717 15.8728 18.4965 16.0067 18.3626C16.1406 18.2286 16.2158 18.047 16.2158 17.8576Z" fill="#B2A9A9"/>
</svg>
