<svg width="20" height="20" viewBox="0 0 20 20" fill="none" xmlns="http://www.w3.org/2000/svg">
<path d="M17.1829 7.04134C16.3079 3.19134 12.9496 1.45801 9.99959 1.45801C9.99959 1.45801 9.99959 1.45801 9.99126 1.45801C7.04959 1.45801 3.68292 3.18301 2.80792 7.03301C1.83292 11.333 4.46626 14.9747 6.84959 17.2663C7.73292 18.1163 8.86626 18.5413 9.99959 18.5413C11.1329 18.5413 12.2663 18.1163 13.1413 17.2663C15.5246 14.9747 18.1579 11.3413 17.1829 7.04134ZM9.99959 11.2163C8.54959 11.2163 7.37459 10.0413 7.37459 8.59134C7.37459 7.14134 8.54959 5.96634 9.99959 5.96634C11.4496 5.96634 12.6246 7.14134 12.6246 8.59134C12.6246 10.0413 11.4496 11.2163 9.99959 11.2163Z" fill="#285D8F"/>
</svg>
