<svg width="20" height="19" viewBox="0 0 20 19" fill="none" xmlns="http://www.w3.org/2000/svg">
<path id="Vector" d="M0.334961 7.83628C0.0217109 7.5466 0.191869 7.0229 0.615566 6.97267L6.61914 6.26058C6.79182 6.2401 6.94181 6.13166 7.01465 5.97376L9.54688 0.483973C9.72558 0.0965376 10.2764 0.0964632 10.4551 0.483899L12.9873 5.97365C13.0601 6.13155 13.2092 6.24028 13.3818 6.26075L19.3857 6.97267C19.8094 7.0229 19.9791 7.54675 19.6659 7.83644L15.2278 11.9414C15.1001 12.0595 15.0433 12.2352 15.0771 12.4058L16.255 18.3355C16.3382 18.7539 15.8928 19.0782 15.5205 18.8698L10.2451 15.9161C10.0934 15.8312 9.90906 15.8316 9.75733 15.9165L4.48144 18.869C4.10913 19.0774 3.66294 18.7539 3.74609 18.3354L4.92414 12.4061C4.95803 12.2356 4.90134 12.0594 4.77367 11.9414L0.334961 7.83628Z" fill="#F0BD0A"/>
</svg>
