<svg width="10" height="21" viewBox="0 0 10 21" fill="none" xmlns="http://www.w3.org/2000/svg">
<g id="Frame 806271044" clip-path="url(#clip0_1_5069)">
<path id="Vector" d="M-9.66699 8.83628C-9.98024 8.5466 -9.81008 8.02291 -9.38639 7.97267L-3.38281 7.26058C-3.21013 7.2401 -3.06014 7.13166 -2.9873 6.97376L-0.455078 1.48397C-0.276371 1.09654 0.274418 1.09646 0.453125 1.4839L2.98535 6.97365C3.05819 7.13155 3.2072 7.24028 3.37988 7.26076L9.38379 7.97267C9.80749 8.02291 9.97716 8.54675 9.66391 8.83644L5.22581 12.9414C5.09814 13.0595 5.04131 13.2352 5.0752 13.4058L6.25306 19.3355C6.33621 19.7539 5.89083 20.0782 5.51853 19.8698L0.243193 16.9161C0.0914555 16.8312 -0.0928888 16.8316 -0.244626 16.9165L-5.52051 19.869C-5.89282 20.0774 -6.33901 19.7539 -6.25586 19.3354L-5.07781 13.4061C-5.04392 13.2356 -5.10062 13.0594 -5.22828 12.9414L-9.66699 8.83628Z" fill="#E5E5E5"/>
</g>
<defs>
<clipPath id="clip0_1_5069">
<rect width="10" height="20" fill="white" transform="translate(0 0.5)"/>
</clipPath>
</defs>
</svg>
