<svg width="35" height="35" viewBox="0 0 35 35" fill="none" xmlns="http://www.w3.org/2000/svg">
<path d="M24.7917 24.7917C23.1808 24.7917 21.875 26.0975 21.875 27.7083C21.875 29.3192 23.1808 30.625 24.7917 30.625C26.4025 30.625 27.7083 29.3192 27.7083 27.7083C27.7083 26.0975 26.4025 24.7917 24.7917 24.7917ZM24.7917 24.7917H13.5537C12.8813 24.7917 12.5445 24.7917 12.2677 24.672C12.0235 24.5665 11.8116 24.3966 11.6572 24.18C11.4842 23.9371 11.4146 23.6123 11.2769 22.9695L7.68758 6.21928C7.54664 5.56155 7.47522 5.23305 7.30021 4.98739C7.14586 4.77072 6.93404 4.60019 6.68984 4.49465C6.41296 4.375 6.07802 4.375 5.40536 4.375H4.375M8.75 8.75H27.5234C28.576 8.75 29.1018 8.75 29.4551 8.96927C29.7645 9.16134 29.9911 9.46257 30.0899 9.81313C30.2026 10.2133 30.0578 10.7187 29.766 11.73L27.7468 18.73C27.5724 19.3347 27.4851 19.6365 27.3081 19.8609C27.1519 20.0589 26.9459 20.214 26.7124 20.3091C26.4485 20.4167 26.135 20.4167 25.5093 20.4167H11.2736M11.6667 30.625C10.0558 30.625 8.75 29.3192 8.75 27.7083C8.75 26.0975 10.0558 24.7917 11.6667 24.7917C13.2775 24.7917 14.5833 26.0975 14.5833 27.7083C14.5833 29.3192 13.2775 30.625 11.6667 30.625Z" stroke="#2C689A" stroke-width="2" stroke-linecap="round" stroke-linejoin="round"/>
</svg>
