<svg width="17" height="18" viewBox="0 0 17 18" fill="none" xmlns="http://www.w3.org/2000/svg">
<path d="M3.84104 11.6762C3.91465 11.3484 3.78082 10.88 3.54663 10.6458L1.92068 9.01984C1.41215 8.51131 1.21141 7.96933 1.35862 7.50094C1.51252 7.03256 1.98759 6.71138 2.69685 6.59094L4.7845 6.243C5.0856 6.18947 5.45362 5.92183 5.59413 5.64749L6.74501 3.33903C7.07957 2.67661 7.53457 2.30859 8.02972 2.30859C8.52487 2.30859 8.97987 2.67661 9.31442 3.33903L10.4653 5.64749C10.5523 5.82146 10.733 5.98874 10.927 6.10249L3.7206 13.3089C3.62693 13.4026 3.46634 13.3156 3.4931 13.1817L3.84104 11.6762Z" fill="#F0BD0A"/>
<path d="M12.5124 10.6468C12.2715 10.8877 12.1377 11.3494 12.2179 11.6772L12.6796 13.6913C12.8737 14.5277 12.7532 15.1567 12.3384 15.4578C12.1711 15.5782 11.9704 15.6384 11.7362 15.6384C11.3949 15.6384 10.9935 15.5113 10.5518 15.2503L8.59133 14.0861C8.28354 13.9054 7.77501 13.9054 7.46721 14.0861L5.5067 15.2503C4.76398 15.6853 4.12832 15.7589 3.72016 15.4578C3.56626 15.344 3.45251 15.1901 3.37891 14.9894L11.5154 6.85291C11.8232 6.54512 12.2581 6.4046 12.6796 6.4782L13.3554 6.59195C14.0647 6.7124 14.5398 7.03357 14.6937 7.50195C14.8409 7.97034 14.6401 8.51232 14.1316 9.02085L12.5124 10.6468Z" fill="#F0BD0A"/>
</svg>
