<svg width="20" height="20" viewBox="0 0 20 20" fill="none" xmlns="http://www.w3.org/2000/svg">
<path d="M4.78335 13.3334C4.87501 12.9251 4.70835 12.3417 4.41668 12.0501L2.39168 10.0251C1.75835 9.39175 1.50835 8.71675 1.69168 8.13341C1.88335 7.55008 2.47502 7.15008 3.35835 7.00008L5.95835 6.56675C6.33335 6.50008 6.79168 6.16675 6.96668 5.82508L8.40001 2.95008C8.81668 2.12508 9.38335 1.66675 10 1.66675C10.6167 1.66675 11.1833 2.12508 11.6 2.95008L13.0333 5.82508C13.1417 6.04175 13.3667 6.25008 13.6083 6.39175L4.63335 15.3667C4.51668 15.4834 4.31668 15.3751 4.35001 15.2084L4.78335 13.3334Z" fill="#C2C2C2"/>
<path d="M15.5833 12.0501C15.2833 12.3501 15.1167 12.9251 15.2167 13.3334L15.7917 15.8417C16.0333 16.8834 15.8833 17.6667 15.3667 18.0417C15.1583 18.1917 14.9083 18.2667 14.6167 18.2667C14.1917 18.2667 13.6917 18.1084 13.1417 17.7834L10.7 16.3334C10.3167 16.1084 9.68334 16.1084 9.30001 16.3334L6.85834 17.7834C5.93334 18.3251 5.14168 18.4167 4.63334 18.0417C4.44168 17.9001 4.30001 17.7084 4.20834 17.4584L14.3417 7.32508C14.725 6.94174 15.2667 6.76674 15.7917 6.85841L16.6333 7.00008C17.5167 7.15008 18.1083 7.55008 18.3 8.13341C18.4833 8.71674 18.2333 9.39174 17.6 10.0251L15.5833 12.0501Z" fill="#C2C2C2"/>
</svg>
