<svg width="17" height="18" viewBox="0 0 17 18" fill="none" xmlns="http://www.w3.org/2000/svg">
<path d="M3.89964 11.6762C3.97324 11.3484 3.83942 10.88 3.60523 10.6458L1.97927 9.01984C1.47074 8.51131 1.27001 7.96933 1.41721 7.50094C1.57111 7.03256 2.04618 6.71138 2.75545 6.59094L4.84309 6.243C5.1442 6.18947 5.51221 5.92183 5.65273 5.64749L6.80361 3.33903C7.13817 2.67661 7.59317 2.30859 8.08831 2.30859C8.58346 2.30859 9.03846 2.67661 9.37302 3.33903L10.5239 5.64749C10.6109 5.82146 10.7915 5.98874 10.9856 6.10249L3.7792 13.3089C3.68552 13.4026 3.52493 13.3156 3.5517 13.1817L3.89964 11.6762Z" fill="#F0BD0A"/>
<path d="M12.571 10.6449C12.3301 10.8857 12.1962 11.3474 12.2765 11.6753L12.7382 13.6893C12.9323 14.5257 12.8118 15.1547 12.397 15.4558C12.2297 15.5762 12.029 15.6365 11.7948 15.6365C11.4535 15.6365 11.0521 15.5093 10.6104 15.2484L8.64992 14.0841C8.34213 13.9035 7.8336 13.9035 7.52581 14.0841L5.56529 15.2484C4.82257 15.6833 4.18691 15.7569 3.77875 15.4558C3.62485 15.3421 3.5111 15.1882 3.4375 14.9874L11.574 6.85096C11.8818 6.54316 12.3167 6.40265 12.7382 6.47625L13.414 6.59C14.1233 6.71044 14.5984 7.03162 14.7523 7.5C14.8995 7.96838 14.6987 8.51037 14.1902 9.0189L12.571 10.6449Z" fill="#F0BD0A"/>
</svg>
