<svg width="20" height="20" viewBox="0 0 20 20" fill="none" xmlns="http://www.w3.org/2000/svg">
<path d="M18.1163 9.22631C18.0747 8.80131 17.7163 8.48463 17.2913 8.48463H10.9997C10.5413 8.48463 10.1663 8.85963 10.1663 9.31796V10.743C10.1663 11.2013 10.5413 11.5763 10.9997 11.5763H14.758C14.6663 12.343 14.1663 13.5013 13.058 14.2763C12.3497 14.768 11.408 15.1096 10.1663 15.1096C10.108 15.1096 10.058 15.1096 9.99968 15.1013C7.87468 15.0346 6.07468 13.6096 5.42468 11.6513C5.24968 11.1263 5.14968 10.5763 5.14968 10.0013C5.14968 9.4263 5.24968 8.86796 5.41634 8.35129C5.46634 8.20129 5.52468 8.05131 5.59134 7.90131C6.35801 6.17631 8.03301 4.95964 9.99968 4.90131C10.0497 4.89297 10.108 4.89296 10.1663 4.89296C11.358 4.89296 12.2497 5.28462 12.8747 5.71796C13.1997 5.94296 13.633 5.89296 13.9163 5.61796L15.0747 4.48464C15.4413 4.12631 15.408 3.51796 14.9913 3.21796C13.6663 2.24296 12.0497 1.66797 10.1663 1.66797C10.108 1.66797 10.058 1.66798 9.99968 1.67631C6.80801 1.73464 4.06634 3.58464 2.72467 6.25964C2.15801 7.39298 1.83301 8.65964 1.83301 10.0013C1.83301 11.343 2.15801 12.6096 2.72467 13.743H2.73301C4.07468 16.418 6.81634 18.268 9.99968 18.3263C10.058 18.3346 10.108 18.3346 10.1663 18.3346C12.4163 18.3346 14.308 17.593 15.683 16.318C17.258 14.8596 18.1663 12.7263 18.1663 10.1846C18.1663 9.8263 18.1497 9.51798 18.1163 9.22631Z" fill="#FAFBFC"/>
</svg>
