<svg width="20" height="20" viewBox="0 0 20 20" fill="none" xmlns="http://www.w3.org/2000/svg">
<path d="M10.0003 1.66797C5.40033 1.66797 1.66699 5.4013 1.66699 10.0013C1.66699 14.6013 5.40033 18.3346 10.0003 18.3346C14.6003 18.3346 18.3337 14.6013 18.3337 10.0013C18.3337 5.4013 14.6003 1.66797 10.0003 1.66797ZM13.3587 10.443L10.8587 12.943C10.7337 13.068 10.5753 13.1263 10.417 13.1263C10.2587 13.1263 10.1003 13.068 9.97533 12.943C9.73366 12.7013 9.73366 12.3013 9.97533 12.0596L11.4087 10.6263H7.08366C6.74199 10.6263 6.45866 10.343 6.45866 10.0013C6.45866 9.65964 6.74199 9.3763 7.08366 9.3763H11.4087L9.97533 7.94297C9.73366 7.7013 9.73366 7.3013 9.97533 7.05964C10.217 6.81797 10.617 6.81797 10.8587 7.05964L13.3587 9.55964C13.6003 9.8013 13.6003 10.2013 13.3587 10.443Z" fill="#FAFBFC"/>
</svg>
