<svg width="17" height="18" viewBox="0 0 17 18" fill="none" xmlns="http://www.w3.org/2000/svg">
<path d="M3.95823 11.6762C4.03184 11.3484 3.89801 10.88 3.66382 10.6458L2.03787 9.01984C1.52934 8.51131 1.3286 7.96933 1.47581 7.50094C1.6297 7.03256 2.10478 6.71138 2.81404 6.59094L4.90169 6.243C5.20279 6.18947 5.5708 5.92183 5.71132 5.64749L6.8622 3.33903C7.19676 2.67661 7.65176 2.30859 8.14691 2.30859C8.64205 2.30859 9.09705 2.67661 9.43161 3.33903L10.5825 5.64749C10.6695 5.82146 10.8501 5.98874 11.0442 6.10249L3.83779 13.3089C3.74412 13.4026 3.58353 13.3156 3.61029 13.1817L3.95823 11.6762Z" fill="#F0BD0A"/>
<path d="M12.6295 10.6468C12.3887 10.8877 12.2548 11.3494 12.3351 11.6772L12.7968 13.6913C12.9909 14.5277 12.8704 15.1567 12.4556 15.4578C12.2883 15.5782 12.0876 15.6384 11.8534 15.6384C11.5121 15.6384 11.1106 15.5113 10.669 15.2503L8.70852 14.0861C8.40072 13.9054 7.89219 13.9054 7.5844 14.0861L5.62389 15.2503C4.88117 15.6853 4.2455 15.7589 3.83734 15.4578C3.68345 15.344 3.5697 15.1901 3.49609 14.9894L11.6326 6.85291C11.9404 6.54512 12.3753 6.4046 12.7968 6.4782L13.4726 6.59195C14.1819 6.7124 14.657 7.03357 14.8109 7.50195C14.9581 7.97034 14.7573 8.51232 14.2488 9.02085L12.6295 10.6468Z" fill="#F0BD0A"/>
</svg>
