<svg width="20" height="20" viewBox="0 0 20 20" fill="none" xmlns="http://www.w3.org/2000/svg">
<path d="M4.78333 13.3334C4.875 12.9251 4.70833 12.3417 4.41667 12.0501L2.39167 10.0251C1.75833 9.39175 1.50833 8.71675 1.69167 8.13341C1.88333 7.55008 2.475 7.15008 3.35833 7.00008L5.95833 6.56675C6.33333 6.50008 6.79167 6.16675 6.96667 5.82508L8.4 2.95008C8.81667 2.12508 9.38333 1.66675 10 1.66675C10.6167 1.66675 11.1833 2.12508 11.6 2.95008L13.0333 5.82508C13.1417 6.04175 13.3667 6.25008 13.6083 6.39175L4.63333 15.3667C4.51667 15.4834 4.31667 15.3751 4.35 15.2084L4.78333 13.3334Z" fill="#F0BD0A"/>
<path d="M15.5833 12.0501C15.2833 12.3501 15.1167 12.9251 15.2167 13.3334L15.7917 15.8417C16.0333 16.8834 15.8833 17.6667 15.3667 18.0417C15.1583 18.1917 14.9083 18.2667 14.6167 18.2667C14.1917 18.2667 13.6917 18.1084 13.1417 17.7834L10.7 16.3334C10.3167 16.1084 9.68333 16.1084 9.29999 16.3334L6.85833 17.7834C5.93333 18.3251 5.14166 18.4167 4.63333 18.0417C4.44166 17.9001 4.29999 17.7084 4.20833 17.4584L14.3417 7.32508C14.725 6.94174 15.2667 6.76674 15.7917 6.85841L16.6333 7.00008C17.5167 7.15008 18.1083 7.55008 18.3 8.13341C18.4833 8.71674 18.2333 9.39174 17.6 10.0251L15.5833 12.0501Z" fill="#F0BD0A"/>
</svg>
