<svg width="17" height="18" viewBox="0 0 17 18" fill="none" xmlns="http://www.w3.org/2000/svg">
<path d="M4.0764 11.6762C4.15 11.3484 4.01618 10.88 3.78199 10.6458L2.15603 9.01984C1.6475 8.51131 1.44677 7.96933 1.59397 7.50094C1.74787 7.03256 2.22294 6.71138 2.93221 6.59094L5.01985 6.243C5.32095 6.18947 5.68897 5.92183 5.82948 5.64749L6.98037 3.33903C7.31492 2.67661 7.76992 2.30859 8.26507 2.30859C8.76022 2.30859 9.21522 2.67661 9.54978 3.33903L10.7007 5.64749C10.7876 5.82146 10.9683 5.98874 11.1623 6.10249L3.95596 13.3089C3.86228 13.4026 3.70169 13.3156 3.72846 13.1817L4.0764 11.6762Z" fill="#F0BD0A"/>
<path d="M12.7477 10.6449C12.5068 10.8857 12.373 11.3474 12.4533 11.6753L12.915 13.6893C13.109 14.5257 12.9886 15.1547 12.5737 15.4558C12.4065 15.5762 12.2057 15.6365 11.9715 15.6365C11.6303 15.6365 11.2288 15.5093 10.7872 15.2484L8.82668 14.0841C8.51889 13.9035 8.01036 13.9035 7.70256 14.0841L5.74205 15.2484C4.99933 15.6833 4.36367 15.7569 3.95551 15.4558C3.80161 15.3421 3.68786 15.1882 3.61426 14.9874L11.7507 6.85096C12.0585 6.54316 12.4934 6.40265 12.915 6.47625L13.5908 6.59C14.3001 6.71044 14.7751 7.03162 14.929 7.5C15.0762 7.96838 14.8755 8.51037 14.367 9.0189L12.7477 10.6449Z" fill="#F0BD0A"/>
</svg>
