<svg width="20" height="20" viewBox="0 0 20 20" fill="none" xmlns="http://www.w3.org/2000/svg">
<path d="M9.20768 12.4577L7.66602 13.9993C7.34102 14.3243 6.82435 14.3243 6.49102 14.0077C6.39935 13.916 6.30768 13.8327 6.21602 13.741C5.35768 12.8743 4.58268 11.966 3.89102 11.016C3.20768 10.066 2.65768 9.11602 2.25768 8.17435C1.86602 7.22435 1.66602 6.31602 1.66602 5.44935C1.66602 4.88268 1.76602 4.34102 1.96602 3.84102C2.16602 3.33268 2.48268 2.86602 2.92435 2.44935C3.45768 1.92435 4.04102 1.66602 4.65768 1.66602C4.89102 1.66602 5.12435 1.71602 5.33268 1.81602C5.54935 1.91602 5.74102 2.06602 5.89102 2.28268L7.82435 5.00768C7.97435 5.21602 8.08268 5.40768 8.15768 5.59102C8.23268 5.76602 8.27435 5.94102 8.27435 6.09935C8.27435 6.29935 8.21602 6.49935 8.09935 6.69102C7.99102 6.88268 7.83268 7.08268 7.63268 7.28268L6.99935 7.94102C6.90768 8.03268 6.86602 8.14102 6.86602 8.27435C6.86602 8.34102 6.87435 8.39935 6.89102 8.46602C6.91602 8.53268 6.94102 8.58268 6.95768 8.63268C7.10768 8.90768 7.36602 9.26602 7.73268 9.69935C8.10768 10.1327 8.50768 10.5743 8.94102 11.016C9.02435 11.0993 9.11602 11.1827 9.19935 11.266C9.53268 11.591 9.54102 12.1243 9.20768 12.4577Z" fill="#285D8F"/>
<path d="M18.3083 15.2742C18.3083 15.5076 18.2667 15.7492 18.1833 15.9826C18.1583 16.0492 18.1333 16.1159 18.1 16.1826C17.9583 16.4826 17.775 16.7659 17.5333 17.0326C17.125 17.4826 16.675 17.8076 16.1667 18.0159C16.1583 18.0159 16.15 18.0242 16.1417 18.0242C15.65 18.2242 15.1167 18.3326 14.5417 18.3326C13.6917 18.3326 12.7833 18.1326 11.825 17.7242C10.8667 17.3159 9.90833 16.7659 8.95833 16.0742C8.63333 15.8326 8.30833 15.5909 8 15.3326L10.725 12.6076C10.9583 12.7826 11.1667 12.9159 11.3417 13.0076C11.3833 13.0242 11.4333 13.0492 11.4917 13.0742C11.5583 13.0992 11.625 13.1076 11.7 13.1076C11.8417 13.1076 11.95 13.0576 12.0417 12.9659L12.675 12.3409C12.8833 12.1326 13.0833 11.9742 13.275 11.8742C13.4667 11.7576 13.6583 11.6992 13.8667 11.6992C14.025 11.6992 14.1917 11.7326 14.375 11.8076C14.5583 11.8826 14.75 11.9909 14.9583 12.1326L17.7167 14.0909C17.9333 14.2409 18.0833 14.4159 18.175 14.6242C18.2583 14.8326 18.3083 15.0409 18.3083 15.2742Z" fill="#285D8F"/>
</svg>
