<svg version="1.1" xmlns="http://www.w3.org/2000/svg" xmlns:xlink="http://www.w3.org/1999/xlink" x="0px" y="0px" viewBox="308.3794642857143 282.288 104.421875 103.74" style="max-height: 500px" xml:space="preserve" width="104.421875" height="103.74">
<g id="BACKGROUND">
	<rect style="fill:#FFFFFF;" width="500" height="500"/>
</g>
<g id="OBJECTS">
	<g>
		<g>
			<linearGradient id="SVGID_1_" gradientUnits="userSpaceOnUse" x1="347.1996" y1="396.8275" x2="412.2266" y2="280.8682">
				<stop offset="0.0056" style="stop-color:#121211"/>
				<stop offset="0.906" style="stop-color:#3D3D3D"/>
			</linearGradient>
			<path style="fill:url(#SVGID_1_);" d="M325.974,370.439c9.062,8.516,21.25,13.742,34.667,13.742&#10;&#9;&#9;&#9;&#9;c24.482,0,44.906-17.372,49.62-40.461c-2.916,2.334-6.024,4.621-9.337,6.824C375.657,367.357,345.301,375.494,325.974,370.439z"/>
			
				<linearGradient id="SVGID_00000162338678762918305370000012844159601419591049_" gradientUnits="userSpaceOnUse" x1="329.2473" y1="386.7604" x2="394.2741" y2="270.8015">
				<stop offset="0" style="stop-color:#F66A03"/>
				<stop offset="0.2508" style="stop-color:#F66703"/>
				<stop offset="0.4398" style="stop-color:#F65D03"/>
				<stop offset="0.6086" style="stop-color:#F64D03"/>
				<stop offset="0.7655" style="stop-color:#F63603"/>
				<stop offset="0.9129" style="stop-color:#F61903"/>
				<stop offset="1" style="stop-color:#F60403"/>
			</linearGradient>
			<path style="fill:url(#SVGID_00000162338678762918305370000012844159601419591049_);" d="M399.664,350.096&#10;&#9;&#9;&#9;&#9;c3.843-2.314,7.429-4.762,10.76-7.29c0.556-3.007,0.862-6.102,0.862-9.271c0-27.97-22.675-50.645-50.645-50.645&#10;&#9;&#9;&#9;&#9;c-27.971,0-50.645,22.675-50.645,50.645c0,9.029,2.373,17.498,6.514,24.839C332.237,373.286,369.074,368.514,399.664,350.096z"/>
		</g>
		<g>
			
				<linearGradient id="SVGID_00000168110106889503440370000006954781824919546790_" gradientUnits="userSpaceOnUse" x1="360.6407" y1="391.6009" x2="360.6407" y2="289.2267">
				<stop offset="0" style="stop-color:#B5B5B5"/>
				<stop offset="0.2159" style="stop-color:#D4D4D4"/>
				<stop offset="0.4304" style="stop-color:#ECECEC"/>
				<stop offset="0.6303" style="stop-color:#FAFAFA"/>
				<stop offset="0.8011" style="stop-color:#FFFFFF"/>
			</linearGradient>
			<path style="fill:url(#SVGID_00000168110106889503440370000006954781824919546790_);" d="M341.766,359.102&#10;&#9;&#9;&#9;&#9;c-0.77-2.589-0.486-5.324,0.801-7.698l10.389-19.184c-0.475,0.285-0.996,0.306-1.572-0.12c-1.903-1.407-0.029-8.346-1.164-12.226&#10;&#9;&#9;&#9;&#9;c-1.136-3.88-6.737-8.867-11.095-10.74c-4.358-1.872-5.689-6.5-5.689-6.5c-2.05,3.913,3.569,9.203,3.569,9.203&#10;&#9;&#9;&#9;&#9;s-4.306-0.964-6.421-3.422s-0.938-5.713-1.807-10.216c-0.868-4.503-5.547-6.66-5.547-6.66s1.706,3.24,2.486,6.23&#10;&#9;&#9;&#9;&#9;c0.781,2.99-1.357,5.391-1.041,10.836c0.316,5.446,2.771,5.91,7.875,10.168c5.104,4.257,0.952,11.176,0.952,11.176&#10;&#9;&#9;&#9;&#9;s-0.673-3.755-2.504-6.533c-1.831-2.777-3.823-3.117-3.823-3.117s1.493,2.19,1.223,5.393c-0.27,3.203-1.085,5.636-1.968,13.167&#10;&#9;&#9;&#9;&#9;c-1.219,10.391,8.048,15.773,8.048,15.773c-6.976,0.101-10.403-9.262-10.403-9.262s-2.394,11.067,8.081,18.958&#10;&#9;&#9;&#9;&#9;c10.475,7.892,17.668,3.68,17.668,3.68c0.439-0.157,0.866-0.317,1.284-0.48l-4.465-2.417&#10;&#9;&#9;&#9;&#9;C344.268,363.825,342.536,361.691,341.766,359.102z M355.78,327.005l1.653-3.052c-1.456-1.764-3.05-2.956-3.05-2.956&#10;&#9;&#9;&#9;&#9;S355.919,324.669,355.78,327.005z M394.004,320.918l-0.572-0.31l-0.885-16.045c0.433-0.126,0.817-0.418,1.048-0.846&#10;&#9;&#9;&#9;&#9;c0.46-0.85,0.144-1.913-0.706-2.373c-0.85-0.461-1.913-0.144-2.373,0.706c-0.232,0.428-0.266,0.909-0.136,1.34l-13.921,8.027&#10;&#9;&#9;&#9;&#9;l-0.572-0.31c-3.752-2.032-8.44-0.638-10.472,3.115l-20.75,38.318c-2.032,3.752-0.637,8.44,3.114,10.472l18.116,9.81&#10;&#9;&#9;&#9;&#9;c3.752,2.032,8.441,0.637,10.472-3.115l20.75-38.318C399.15,327.638,397.756,322.949,394.004,320.918z M390.785,304.077&#10;&#9;&#9;&#9;&#9;c0.036,0.039,0.071,0.078,0.111,0.114l-6.3,11.633l-7.314-3.961L390.785,304.077z M385.296,316.202l6.3-11.633&#10;&#9;&#9;&#9;&#9;c0.052,0.014,0.104,0.022,0.156,0.031l0.858,15.563L385.296,316.202z"/>
			
				<linearGradient id="SVGID_00000131365343961860780110000001464777104681930682_" gradientUnits="userSpaceOnUse" x1="358.6321" y1="318.3773" x2="358.6321" y2="403.7637">
				<stop offset="0.1174" style="stop-color:#B5B5B5"/>
				<stop offset="0.2468" style="stop-color:#D4D4D4"/>
				<stop offset="0.3755" style="stop-color:#ECECEC"/>
				<stop offset="0.4953" style="stop-color:#FAFAFA"/>
				<stop offset="0.5977" style="stop-color:#FFFFFF"/>
			</linearGradient>
			<path style="fill:url(#SVGID_00000131365343961860780110000001464777104681930682_);" d="M341.766,359.102&#10;&#9;&#9;&#9;&#9;c-0.77-2.589-0.486-5.324,0.801-7.698l10.389-19.184c-0.475,0.285-0.996,0.306-1.572-0.12c-0.303-0.224-0.503-0.601-0.642-1.072&#10;&#9;&#9;&#9;&#9;c-8.694,1.192-16.899,3.918-24.32,7.919c-1.156,10.333,8.056,15.686,8.056,15.686c-6.976,0.101-10.403-9.262-10.403-9.262&#10;&#9;&#9;&#9;&#9;s-2.394,11.067,8.081,18.958c10.475,7.892,17.668,3.68,17.668,3.68c0.439-0.157,0.866-0.317,1.284-0.48l-4.465-2.417&#10;&#9;&#9;&#9;&#9;C344.268,363.825,342.536,361.691,341.766,359.102z M360.641,330.334c-1.347,0-2.684,0.044-4.013,0.116l-11.962,22.089&#10;&#9;&#9;&#9;&#9;c-2.032,3.752-0.637,8.44,3.114,10.472l18.116,9.81c3.752,2.032,8.441,0.637,10.472-3.115l17.057-31.497&#10;&#9;&#9;&#9;&#9;C383.583,333.186,372.448,330.334,360.641,330.334z"/>
		</g>
	</g>
	<g>
		
			<linearGradient id="SVGID_00000032625689100966399030000003866296670202594445_" gradientUnits="userSpaceOnUse" x1="117.3221" y1="149.9252" x2="117.3221" y2="250.8837" gradientTransform="matrix(1 -0.622 0 1 0 226.0043)">
			<stop offset="0" style="stop-color:#F66A03"/>
			<stop offset="0.2508" style="stop-color:#F66703"/>
			<stop offset="0.4398" style="stop-color:#F65D03"/>
			<stop offset="0.6086" style="stop-color:#F64D03"/>
			<stop offset="0.7655" style="stop-color:#F63603"/>
			<stop offset="0.9129" style="stop-color:#F61903"/>
			<stop offset="1" style="stop-color:#F60403"/>
		</linearGradient>
		<polygon style="fill:url(#SVGID_00000032625689100966399030000003866296670202594445_);" points="137.35,369.899 97.294,385.873 &#10;&#9;&#9;&#9;97.294,307.324 137.35,291.349"/>
		
			<linearGradient id="SVGID_00000154412867289930528300000002502423657127586994_" gradientUnits="userSpaceOnUse" x1="157.3783" y1="301.1191" x2="157.3783" y2="218.6632" gradientTransform="matrix(1 -0.3943 0 1 0 143.6721)">
			<stop offset="0.0872" style="stop-color:#121211"/>
			<stop offset="0.9683" style="stop-color:#3D3D3D"/>
		</linearGradient>
		<polygon style="fill:url(#SVGID_00000154412867289930528300000002502423657127586994_);" points="177.406,360.362 137.35,376.336 &#10;&#9;&#9;&#9;137.35,297.786 177.406,281.812"/>
		<g>
			
				<linearGradient id="SVGID_00000093138187880540484790000004421881637564022194_" gradientUnits="userSpaceOnUse" x1="137.3501" y1="385.5751" x2="137.3501" y2="307.5034">
				<stop offset="0.1365" style="stop-color:#B5B5B5"/>
				<stop offset="0.2863" style="stop-color:#CFCFCF"/>
				<stop offset="0.4732" style="stop-color:#E9E9E9"/>
				<stop offset="0.641" style="stop-color:#F9F9F9"/>
				<stop offset="0.7719" style="stop-color:#FFFFFF"/>
			</linearGradient>
			<path style="fill:url(#SVGID_00000093138187880540484790000004421881637564022194_);" d="M162.076,357.993&#10;&#9;&#9;&#9;&#9;c-0.596-5.281-2.195-13.734-6.486-21.065c-0.939-1.604-1.965-2.959-3.035-4.116c1.42-2.2,2.871-4.865,3.358-7.177&#10;&#9;&#9;&#9;&#9;c0.484-2.298,0.581-6.957,0.288-13.846c-0.164-3.838-3.303-6.844-7.147-6.844h-23.405c-3.844,0-6.984,3.007-7.148,6.845&#10;&#9;&#9;&#9;&#9;c-0.293,6.889-0.196,11.548,0.288,13.846c0.487,2.312,1.938,4.977,3.358,7.177c-1.07,1.157-2.096,2.512-3.035,4.116&#10;&#9;&#9;&#9;&#9;c-4.291,7.331-5.89,15.784-6.486,21.065c-0.311,2.752,1.861,5.155,4.631,5.155h40.19&#10;&#9;&#9;&#9;&#9;C160.215,363.148,162.386,360.745,162.076,357.993z M123.395,311.998c0.051-1.208,1.041-2.155,2.253-2.155h23.405&#10;&#9;&#9;&#9;&#9;c1.212,0,2.202,0.946,2.253,2.154c0.264,6.208,0.196,10.811-0.187,12.63c-0.299,1.422-1.263,3.26-2.334,4.976&#10;&#9;&#9;&#9;&#9;c-5.75-3.781-11.435-3.219-11.435-3.219s-5.686-0.563-11.436,3.22c-1.07-1.714-2.032-3.55-2.332-4.976&#10;&#9;&#9;&#9;&#9;C123.199,322.808,123.131,318.205,123.395,311.998z M127.293,355.146l-2.632-1.384l-2.632,1.384l0.503-2.931l-2.129-2.076&#10;&#9;&#9;&#9;&#9;l2.942-0.427l1.316-2.666l1.316,2.666l2.942,0.427l-2.129,2.076L127.293,355.146z M141.981,349.509l-4.631-2.435l-4.631,2.435&#10;&#9;&#9;&#9;&#9;l0.885-5.157l-3.747-3.652l5.178-0.753l2.316-4.692l2.316,4.692l5.178,0.753l-3.747,3.652L141.981,349.509z M152.671,355.146&#10;&#9;&#9;&#9;&#9;l-2.632-1.384l-2.632,1.384l0.503-2.931l-2.129-2.076l2.943-0.427l1.316-2.666l1.316,2.666l2.943,0.427l-2.129,2.076&#10;&#9;&#9;&#9;&#9;L152.671,355.146z"/>
			
				<linearGradient id="SVGID_00000160896762328310451310000009658104349837705352_" gradientUnits="userSpaceOnUse" x1="137.3502" y1="324.306" x2="137.3502" y2="373.9507">
				<stop offset="0.2235" style="stop-color:#B5B5B5"/>
				<stop offset="0.3376" style="stop-color:#C4C4C4"/>
				<stop offset="0.6117" style="stop-color:#E4E4E4"/>
				<stop offset="0.8423" style="stop-color:#F8F8F8"/>
				<stop offset="1" style="stop-color:#FFFFFF"/>
			</linearGradient>
			<path style="fill:url(#SVGID_00000160896762328310451310000009658104349837705352_);" d="M156.035,337.727&#10;&#9;&#9;&#9;&#9;c-5.679,0.036-11.208,0.691-16.535,1.884l0.166,0.337l5.178,0.752l-3.747,3.652l0.884,5.157l-4.631-2.435l-4.631,2.435&#10;&#9;&#9;&#9;&#9;l0.884-5.157l-2.438-2.377c-6.133,2.12-11.917,4.98-17.244,8.484c-0.66,2.831-1.06,5.435-1.296,7.534&#10;&#9;&#9;&#9;&#9;c-0.311,2.752,1.861,5.155,4.631,5.155h40.19c2.77,0,4.941-2.402,4.631-5.155C161.501,352.902,159.987,344.866,156.035,337.727z&#10;&#9;&#9;&#9;&#9; M127.293,355.146l-2.632-1.384l-2.632,1.384l0.503-2.931l-2.129-2.076l2.942-0.427l1.316-2.666l1.316,2.666l2.942,0.427&#10;&#9;&#9;&#9;&#9;l-2.129,2.076L127.293,355.146z M152.671,355.146l-2.632-1.384l-2.632,1.384l0.503-2.931l-2.129-2.076l2.943-0.427l1.316-2.666&#10;&#9;&#9;&#9;&#9;l1.316,2.666l2.943,0.427l-2.129,2.076L152.671,355.146z"/>
		</g>
	</g>
	<g>
		
			<linearGradient id="SVGID_00000147218586303552598440000013887037271357816725_" gradientUnits="userSpaceOnUse" x1="75.1044" y1="109.2077" x2="141.4466" y2="109.2077">
			<stop offset="0" style="stop-color:#F66A03"/>
			<stop offset="0.2508" style="stop-color:#F66703"/>
			<stop offset="0.4398" style="stop-color:#F65D03"/>
			<stop offset="0.6086" style="stop-color:#F64D03"/>
			<stop offset="0.7655" style="stop-color:#F63603"/>
			<stop offset="0.9129" style="stop-color:#F61903"/>
			<stop offset="1" style="stop-color:#F60403"/>
		</linearGradient>
		<polygon style="fill:url(#SVGID_00000147218586303552598440000013887037271357816725_);" points="141.963,137.242 72.513,150.586 &#10;&#9;&#9;&#9;72.513,67.83 141.963,81.174"/>
		
			<linearGradient id="SVGID_00000106845597368691820030000013137495378499923891_" gradientUnits="userSpaceOnUse" x1="107.5146" y1="109.2077" x2="218.637" y2="109.2077">
			<stop offset="0.0872" style="stop-color:#121211"/>
			<stop offset="0.8635" style="stop-color:#3D3D3D"/>
		</linearGradient>
		<polygon style="fill:url(#SVGID_00000106845597368691820030000013137495378499923891_);" points="131.214,133.567 &#10;&#9;&#9;&#9;200.663,150.586 200.663,67.83 131.214,84.848"/>
		<g>
			
				<linearGradient id="SVGID_00000045598091705785785780000007608671182335465904_" gradientUnits="userSpaceOnUse" x1="137.3495" y1="128.4244" x2="137.3495" y2="94.9384">
				<stop offset="0.2308" style="stop-color:#B5B5B5"/>
				<stop offset="0.6632" style="stop-color:#FFFFFF"/>
			</linearGradient>
			<path style="fill:url(#SVGID_00000045598091705785785780000007608671182335465904_);" d="M108.964,114.68&#10;&#9;&#9;&#9;&#9;c1.878,6.221,2.529,11.168,1.424,11.543c-1.259,0.427-4.319-5.24-6.835-12.658c-2.516-7.418-3.535-13.777-2.277-14.204&#10;&#9;&#9;&#9;&#9;c1.079-0.366,3.482,3.752,5.731,9.607c0.294-0.18,0.62-0.374,0.972-0.578c-3.163-8.032-7.085-13.591-9.28-12.847l-5.707,1.936&#10;&#9;&#9;&#9;&#9;c-2.483,0.842-1.817,9.422,1.487,19.164c3.304,9.742,7.996,16.956,10.479,16.114l5.707-1.936c2.274-0.771,1.9-8.038-0.716-16.739&#10;&#9;&#9;&#9;&#9;C109.577,114.301,109.246,114.503,108.964,114.68z M101.439,116.485c-0.197-0.654-0.408-1.317-0.635-1.987&#10;&#9;&#9;&#9;&#9;c-0.228-0.671-0.463-1.325-0.705-1.964c-2.268-7.503-2.645-13.954-0.939-15.715c-0.848,3.156,0.089,9.919,2.609,17.351&#10;&#9;&#9;&#9;&#9;c2.521,7.432,5.892,13.369,8.485,15.358C107.829,129.169,104.204,123.819,101.439,116.485z M90.635,101.62l-3.891,1.32&#10;&#9;&#9;&#9;&#9;c-2.061,0.699-1.509,7.821,1.234,15.907c2.743,8.086,6.637,14.075,8.699,13.376l3.89-1.32c-2.274-2.761-4.886-7.868-6.954-13.967&#10;&#9;&#9;&#9;&#9;C91.545,110.838,90.51,105.195,90.635,101.62z M85.41,112.735l-1.53,0.519c-0.955,0.324-0.699,3.623,0.572,7.368&#10;&#9;&#9;&#9;&#9;c1.271,3.745,3.074,6.519,4.029,6.196l1.668-0.566c-1.046-2.043-2.074-4.469-2.977-7.131&#10;&#9;&#9;&#9;&#9;C86.411,116.877,85.825,114.714,85.41,112.735z M106.021,111.106c-0.16,0.112-0.24,0.299-0.218,0.493&#10;&#9;&#9;&#9;&#9;c0.105,0.911,0.439,1.782,0.971,2.529c0.132,0.185,0.381,0.234,0.569,0.107c1.58-1.071,8.704-5.605,18.919-7.797l0.897-3.637&#10;&#9;&#9;&#9;&#9;C115.352,104.909,107.541,110.042,106.021,111.106z M187.954,102.94l-3.891-1.32c0.125,3.575-0.909,9.217-2.978,15.316&#10;&#9;&#9;&#9;&#9;c-2.069,6.099-4.681,11.206-6.955,13.967l3.89,1.32c2.061,0.699,5.956-5.289,8.699-13.376&#10;&#9;&#9;&#9;&#9;C189.463,110.761,190.015,103.639,187.954,102.94z M190.819,113.254l-1.53-0.519c-0.415,1.979-1.001,4.142-1.762,6.386&#10;&#9;&#9;&#9;&#9;c-0.903,2.662-1.931,5.088-2.977,7.131l1.668,0.566c0.955,0.324,2.758-2.45,4.029-6.196&#10;&#9;&#9;&#9;&#9;C191.518,116.877,191.774,113.578,190.819,113.254z M153.328,92.482l-10.613,2.893l6.411-21.293l-15.299,6.614l-6.668,27.034&#10;&#9;&#9;&#9;&#9;l8.518-2.322l-6.543,32.76L153.328,92.482z M167.925,114.129c0.532-0.748,0.866-1.618,0.971-2.529&#10;&#9;&#9;&#9;&#9;c0.022-0.194-0.058-0.382-0.218-0.493c-1.452-1.016-8.641-5.745-19.57-8.003l-1.66,3.136c10.742,2.101,18.278,6.893,19.909,7.997&#10;&#9;&#9;&#9;&#9;C167.544,114.363,167.794,114.314,167.925,114.129z M181.708,97.479l-5.707-1.936c-2.196-0.745-6.117,4.815-9.28,12.847&#10;&#9;&#9;&#9;&#9;c0.352,0.204,0.678,0.398,0.972,0.578c2.249-5.855,4.652-9.973,5.731-9.607c1.259,0.427,0.239,6.786-2.277,14.204&#10;&#9;&#9;&#9;&#9;c-2.516,7.418-5.576,13.085-6.835,12.658c-1.105-0.375-0.454-5.322,1.424-11.543c-0.283-0.178-0.613-0.379-0.984-0.598&#10;&#9;&#9;&#9;&#9;c-2.616,8.7-2.991,15.967-0.716,16.739l5.707,1.936c2.483,0.842,7.175-6.372,10.479-16.114&#10;&#9;&#9;&#9;&#9;C183.525,106.901,184.191,98.321,181.708,97.479z M174.6,112.534c-0.242,0.639-0.478,1.293-0.705,1.964&#10;&#9;&#9;&#9;&#9;c-0.227,0.671-0.438,1.334-0.635,1.987c-2.765,7.334-6.39,12.684-8.816,13.043c2.593-1.989,5.964-7.926,8.485-15.358&#10;&#9;&#9;&#9;&#9;c2.521-7.432,3.457-14.195,2.609-17.351C177.245,98.579,176.868,105.031,174.6,112.534z"/>
			
				<linearGradient id="SVGID_00000087376801772337728510000003753936257122200208_" gradientUnits="userSpaceOnUse" x1="137.6869" y1="97.3068" x2="137.6869" y2="160.3088">
				<stop offset="0.2308" style="stop-color:#B5B5B5"/>
				<stop offset="1" style="stop-color:#FFFFFF"/>
			</linearGradient>
			<path style="fill:url(#SVGID_00000087376801772337728510000003753936257122200208_);" d="M190.819,113.254l-1.53-0.519&#10;&#9;&#9;&#9;&#9;c-0.415,1.979-1.001,4.142-1.762,6.386c-0.903,2.662-1.931,5.088-2.977,7.131l1.668,0.566c0.955,0.324,2.758-2.45,4.029-6.196&#10;&#9;&#9;&#9;&#9;C191.518,116.877,191.774,113.578,190.819,113.254z M108.964,114.68c1.878,6.221,2.529,11.168,1.424,11.543&#10;&#9;&#9;&#9;&#9;c-1.259,0.427-4.319-5.24-6.835-12.658c-0.05-0.149-0.096-0.294-0.145-0.441c-0.611,0.156-1.218,0.315-1.824,0.475&#10;&#9;&#9;&#9;&#9;c0.063,0.19,0.122,0.379,0.187,0.57c2.521,7.432,5.892,13.369,8.485,15.358c-2.426-0.359-6.051-5.709-8.816-13.043&#10;&#9;&#9;&#9;&#9;c-0.197-0.654-0.408-1.317-0.635-1.987c-0.074-0.217-0.153-0.421-0.228-0.634c-2.165,0.583-4.3,1.194-6.407,1.832&#10;&#9;&#9;&#9;&#9;c0.103,0.316,0.2,0.63,0.308,0.948c3.304,9.742,7.996,16.956,10.479,16.114l5.707-1.936c2.274-0.771,1.9-8.038-0.716-16.739&#10;&#9;&#9;&#9;&#9;C109.577,114.301,109.246,114.503,108.964,114.68z M168.751,106.37c-0.389-0.019-0.777-0.041-1.167-0.058&#10;&#9;&#9;&#9;&#9;c-0.292,0.674-0.581,1.361-0.863,2.077c0.352,0.204,0.678,0.398,0.972,0.578C168.044,108.054,168.398,107.189,168.751,106.37z&#10;&#9;&#9;&#9;&#9; M105.99,112.485c0.169,0.586,0.428,1.144,0.784,1.644c0.132,0.185,0.381,0.234,0.569,0.107c0.783-0.53,2.93-1.911,6.135-3.436&#10;&#9;&#9;&#9;&#9;c-1.078,0.223-2.157,0.454-3.236,0.693C108.813,111.81,107.398,112.144,105.99,112.485z M86.832,118.068&#10;&#9;&#9;&#9;&#9;c-0.958,0.329-1.91,0.664-2.854,1.005c0.138,0.503,0.295,1.021,0.474,1.549c1.271,3.745,3.074,6.519,4.029,6.196l1.668-0.566&#10;&#9;&#9;&#9;&#9;c-1.046-2.043-2.074-4.469-2.977-7.131C87.052,118.767,86.943,118.418,86.832,118.068z M93.301,115.964&#10;&#9;&#9;&#9;&#9;c-1.913,0.588-3.802,1.197-5.665,1.829c0.112,0.351,0.222,0.7,0.343,1.055c2.743,8.086,6.637,14.075,8.699,13.376l3.89-1.32&#10;&#9;&#9;&#9;&#9;c-2.274-2.761-4.886-7.868-6.954-13.967C93.502,116.608,93.406,116.288,93.301,115.964z M182.623,107.523&#10;&#9;&#9;&#9;&#9;c-2.184-0.261-4.393-0.486-6.623-0.674c-0.332,1.777-0.797,3.691-1.399,5.685c-0.242,0.639-0.478,1.293-0.705,1.964&#10;&#9;&#9;&#9;&#9;c-0.227,0.671-0.438,1.334-0.635,1.987c-2.765,7.334-6.39,12.684-8.816,13.043c2.593-1.989,5.964-7.926,8.485-15.358&#10;&#9;&#9;&#9;&#9;c0.879-2.592,1.561-5.098,2.046-7.403c-0.609-0.048-1.218-0.097-1.831-0.14c-0.478,2.071-1.15,4.441-1.997,6.938&#10;&#9;&#9;&#9;&#9;c-2.516,7.418-5.576,13.085-6.835,12.658c-1.105-0.375-0.454-5.322,1.424-11.543c-0.283-0.178-0.613-0.379-0.984-0.598&#10;&#9;&#9;&#9;&#9;c-2.616,8.7-2.991,15.967-0.716,16.739l5.707,1.936c2.483,0.842,7.175-6.372,10.479-16.114&#10;&#9;&#9;&#9;&#9;C181.325,113.389,182.127,110.273,182.623,107.523z M189.109,108.419c-1.845-0.288-3.71-0.549-5.593-0.783&#10;&#9;&#9;&#9;&#9;c-0.493,2.795-1.301,5.972-2.43,9.301c-2.069,6.099-4.681,11.206-6.955,13.967l3.89,1.32c2.061,0.699,5.956-5.289,8.699-13.376&#10;&#9;&#9;&#9;&#9;C188.046,114.938,188.855,111.261,189.109,108.419z M167.925,114.129c0.532-0.748,0.866-1.618,0.971-2.529&#10;&#9;&#9;&#9;&#9;c0.022-0.194-0.058-0.382-0.218-0.493c-0.942-0.659-4.311-2.88-9.537-4.976c-3.629-0.007-7.297,0.077-10.998,0.258&#10;&#9;&#9;&#9;&#9;c10.366,2.168,17.618,6.768,19.213,7.848C167.544,114.363,167.794,114.314,167.925,114.129z M129.134,138.168l16.767-31.661&#10;&#9;&#9;&#9;&#9;c-3.516,0.207-7.059,0.504-10.62,0.885L129.134,138.168z"/>
		</g>
	</g>
	<g>
		<polygon style="fill:#323231;" points="347.114,145.407 278.069,145.407 308.467,75.46 377.512,75.46"/>
		
			<linearGradient id="SVGID_00000049222487371126725060000013537005846984489406_" gradientUnits="userSpaceOnUse" x1="325.6118" y1="110.4333" x2="447.232" y2="110.4333">
			<stop offset="0" style="stop-color:#F66A03"/>
			<stop offset="0.2508" style="stop-color:#F66703"/>
			<stop offset="0.4398" style="stop-color:#F65D03"/>
			<stop offset="0.6086" style="stop-color:#F64D03"/>
			<stop offset="0.7655" style="stop-color:#F63603"/>
			<stop offset="0.9129" style="stop-color:#F61903"/>
			<stop offset="1" style="stop-color:#F60403"/>
		</linearGradient>
		<polygon style="fill:url(#SVGID_00000049222487371126725060000013537005846984489406_);" points="408.569,154.916 &#10;&#9;&#9;&#9;325.612,154.916 364.275,65.951 447.232,65.951"/>
		<g>
			
				<linearGradient id="SVGID_00000124842941761742167250000010087580961040792746_" gradientUnits="userSpaceOnUse" x1="355.6284" y1="171.8305" x2="355.6284" y2="90.6508">
				<stop offset="0.0946" style="stop-color:#B5B5B5"/>
				<stop offset="0.2247" style="stop-color:#D0D0D0"/>
				<stop offset="0.3665" style="stop-color:#E5E5E5"/>
				<stop offset="0.5252" style="stop-color:#F4F4F4"/>
				<stop offset="0.7125" style="stop-color:#FCFCFC"/>
				<stop offset="1" style="stop-color:#FFFFFF"/>
			</linearGradient>
			<path style="fill:url(#SVGID_00000124842941761742167250000010087580961040792746_);" d="M315.445,114.619&#10;&#9;&#9;&#9;&#9;c2.381-10.173,10.079-17.07,17.195-15.404c-1.585-0.371-3.07-0.718-3.755-0.879c-7.116-1.665-14.814,5.231-17.195,15.405&#10;&#9;&#9;&#9;&#9;c-2.381,10.173,1.457,19.77,8.573,21.436c0.685,0.16,2.169,0.508,3.754,0.878C316.902,134.389,313.064,124.792,315.445,114.619z&#10;&#9;&#9;&#9;&#9; M355.357,115.152l39.973-25.631l-9.796-2.475l14.739-14.141l-15.224-1.613L367.513,89.91l7.862,1.987L355.357,115.152z&#10;&#9;&#9;&#9;&#9; M353.895,87.882l1.51,18.932l6.136-28.743l-5.355,3.23l0.199-12.641l-7.34,5.993l0.552,15.82L353.895,87.882z M324.017,136.055&#10;&#9;&#9;&#9;&#9;c0.014,0.003,0.027,0.006,0.041,0.009L324.017,136.055L324.017,136.055z M389.126,118.537&#10;&#9;&#9;&#9;&#9;c-4.881-1.142-10.161,3.588-11.795,10.566c-1.634,6.978,0.999,13.561,5.88,14.704c4.881,1.143,10.162-3.589,11.795-10.567&#10;&#9;&#9;&#9;&#9;C396.64,126.263,394.007,119.68,389.126,118.537z M390.055,132.082c-0.718,3.068-3.04,5.148-5.186,4.646&#10;&#9;&#9;&#9;&#9;c-2.146-0.502-3.303-3.397-2.586-6.465c0.718-3.069,3.04-5.148,5.186-4.646C389.615,126.119,390.773,129.014,390.055,132.082z&#10;&#9;&#9;&#9;&#9; M390.48,112.752c-1.584-0.371-7.408-1.734-8.992-2.104c-6.449-1.51-13.362,4.024-16.376,12.644l-18.172-4.253&#10;&#9;&#9;&#9;&#9;c1.123-9.063-2.616-17.089-9.064-18.599c-0.725-0.169-2.342-0.548-4.03-0.943c-7.115-1.665-14.814,5.232-17.194,15.405&#10;&#9;&#9;&#9;&#9;c-2.381,10.173,1.457,19.769,8.572,21.436c1.687,0.395,3.305,0.774,4.03,0.943c5.843,1.367,12.073-3.044,15.435-10.297&#10;&#9;&#9;&#9;&#9;l-2.804-0.573c-2.772,5.129-7.397,8.148-11.755,7.128c-5.671-1.327-8.729-8.975-6.832-17.082&#10;&#9;&#9;&#9;&#9;c1.897-8.107,8.032-13.603,13.702-12.276c5,1.17,7.964,7.257,7.295,14.238l-8.323-1.948c-1.546-0.362-3.092,0.598-3.454,2.144&#10;&#9;&#9;&#9;&#9;c-0.362,1.546,0.598,3.093,2.144,3.454l29.139,6.82c-1.124,9.063,2.616,17.089,9.064,18.598c0.685,0.16,2.169,0.507,3.754,0.879&#10;&#9;&#9;&#9;&#9;c-7.115-1.666-10.953-11.263-8.572-21.435c2.381-10.174,10.079-17.07,17.195-15.404l1.208,0.283&#10;&#9;&#9;&#9;&#9;c-7.116-1.666-14.814,5.231-17.195,15.405c-2.381,10.173,1.457,19.769,8.572,21.435c1.688,0.395,3.305,0.774,4.03,0.943&#10;&#9;&#9;&#9;&#9;c7.115,1.665,14.814-5.231,17.195-15.405C401.434,124.015,397.596,114.418,390.48,112.752z M396.436,133.576&#10;&#9;&#9;&#9;&#9;c-1.897,8.107-8.032,13.603-13.702,12.275c-5.67-1.327-8.729-8.975-6.832-17.081c1.898-8.107,8.033-13.603,13.703-12.276&#10;&#9;&#9;&#9;&#9;C395.275,117.821,398.333,125.469,396.436,133.576z"/>
			
				<linearGradient id="SVGID_00000015318276005934035020000016359750053068170630_" gradientUnits="userSpaceOnUse" x1="354.3867" y1="88.197" x2="354.3867" y2="161.2117">
				<stop offset="0.4224" style="stop-color:#B5B5B5"/>
				<stop offset="0.9271" style="stop-color:#FFFFFF"/>
			</linearGradient>
			<path style="fill:url(#SVGID_00000015318276005934035020000016359750053068170630_);" d="M324.017,136.055&#10;&#9;&#9;&#9;&#9;c0.014,0.003,0.027,0.006,0.041,0.009L324.017,136.055L324.017,136.055z M315.445,114.619c0.141-0.602,0.303-1.19,0.48-1.768&#10;&#9;&#9;&#9;&#9;c-1.359,0.062-2.713,0.143-4.061,0.248c-0.056,0.215-0.123,0.423-0.174,0.641c-2.381,10.173,1.457,19.77,8.573,21.436&#10;&#9;&#9;&#9;&#9;c0.685,0.16,2.169,0.508,3.754,0.878C316.902,134.389,313.064,124.792,315.445,114.619z M383.212,143.807&#10;&#9;&#9;&#9;&#9;c4.309,1.008,8.924-2.563,11.072-8.213c-1.44-1.012-2.899-1.999-4.382-2.952c-0.854,2.757-3.021,4.557-5.034,4.085&#10;&#9;&#9;&#9;&#9;c-2.146-0.502-3.303-3.397-2.586-6.465c0.15-0.642,0.374-1.237,0.648-1.778c-1.512-0.839-3.042-1.647-4.591-2.425&#10;&#9;&#9;&#9;&#9;c-0.41,0.955-0.757,1.969-1.009,3.044C375.698,136.082,378.331,142.665,383.212,143.807z M330.131,133.54&#10;&#9;&#9;&#9;&#9;c-5.671-1.327-8.729-8.975-6.832-17.082c0.308-1.315,0.737-2.553,1.248-3.713c-0.91-0.019-1.821-0.035-2.735-0.035&#10;&#9;&#9;&#9;&#9;c-1.531,0-3.053,0.037-4.571,0.091c-0.219,0.684-0.42,1.382-0.589,2.101c-2.381,10.173,1.457,19.769,8.572,21.436&#10;&#9;&#9;&#9;&#9;c1.687,0.395,3.305,0.774,4.03,0.943c5.843,1.367,12.073-3.044,15.435-10.297l-2.804-0.573&#10;&#9;&#9;&#9;&#9;C339.113,131.54,334.489,134.559,330.131,133.54z M368.048,126.931c0.4-1.709,0.961-3.315,1.633-4.814&#10;&#9;&#9;&#9;&#9;c-1.161-0.476-2.33-0.937-3.508-1.379c-0.389,0.819-0.75,1.665-1.061,2.553l-18.172-4.253c0.16-1.291,0.211-2.556,0.18-3.788&#10;&#9;&#9;&#9;&#9;c-0.935-0.19-1.873-0.37-2.814-0.539c0.11,1.19,0.112,2.434-0.01,3.708l-8.323-1.948c-1.546-0.362-3.092,0.598-3.454,2.144&#10;&#9;&#9;&#9;&#9;c-0.362,1.546,0.598,3.093,2.144,3.454l29.139,6.82c-1.124,9.063,2.616,17.089,9.064,18.598c0.685,0.16,2.169,0.507,3.754,0.879&#10;&#9;&#9;&#9;&#9;C369.505,146.701,365.667,137.104,368.048,126.931z M395.535,136.486c-2.523,6.464-7.84,10.527-12.801,9.366&#10;&#9;&#9;&#9;&#9;c-5.67-1.327-8.729-8.975-6.832-17.081c0.278-1.188,0.657-2.311,1.102-3.374c-2.035-0.991-4.098-1.933-6.192-2.816&#10;&#9;&#9;&#9;&#9;c-0.636,1.449-1.171,2.993-1.556,4.635c-2.381,10.173,1.457,19.769,8.572,21.435c1.688,0.395,3.305,0.774,4.03,0.943&#10;&#9;&#9;&#9;&#9;c6.145,1.438,12.717-3.516,15.931-11.445C397.044,137.585,396.292,137.032,395.535,136.486z"/>
		</g>
	</g>
</g>
<g id="TEXTS">
	<g>
		<text transform="matrix(1 0 0 1 297.8125 418.2275)" style="fill:#323231; font-family:'Rubik-ExtraBold'; font-size:29.6541px;">FITNESS</text>
		<g>
			
				<text transform="matrix(1 0 0 1 323.6377 435.3809)" style="fill:#F66A03; font-family:'Rubik-Medium'; font-size:15.2607px; letter-spacing:3;">CENTER</text>
		</g>
	</g>
	<g>
		
			<text transform="matrix(1 0 0 1 72.5859 419.3066)" style="fill:#323231; font-family:'Rubik-ExtraBoldItalic'; font-size:29.6541px;">FITNESS</text>
		<g>
			
				<text transform="matrix(1 0 0 1 98.3369 436.46)" style="fill:#F66A03; font-family:'Rubik-Medium'; font-size:15.2607px; letter-spacing:3;">CENTER</text>
		</g>
	</g>
	<g>
		<text transform="matrix(1 0 0 1 72.5112 188.687)" style="fill:#323231; font-family:'Rubik-ExtraBold'; font-size:29.6541px;">FITNESS</text>
		<g>
			
				<text transform="matrix(1 0 0 1 98.3364 205.8403)" style="fill:#F66A03; font-family:'Rubik-Medium'; font-size:15.2607px; letter-spacing:3;">CENTER</text>
		</g>
	</g>
	<g>
		<g>
			
				<text transform="matrix(1 0 0 1 291.3594 190.5654)" style="fill:#323231; font-family:'Rubik-ExtraBoldItalic'; font-size:29.6541px;">FITNESS</text>
		</g>
		<g>
			
				<text transform="matrix(1 0 0 1 317.1104 207.7188)" style="fill:#F66A03; font-family:'Rubik-Medium'; font-size:15.2607px; letter-spacing:3;">CENTER</text>
		</g>
	</g>
</g>
</svg>