<svg width="20" height="20" viewBox="0 0 20 20" fill="none" xmlns="http://www.w3.org/2000/svg">
<path d="M17.1829 7.04232C16.3079 3.19232 12.9496 1.45898 9.99959 1.45898C9.99959 1.45898 9.99959 1.45898 9.99126 1.45898C7.04959 1.45898 3.68292 3.18398 2.80792 7.03398C1.83292 11.334 4.46626 14.9756 6.84959 17.2673C7.73292 18.1173 8.86626 18.5423 9.99959 18.5423C11.1329 18.5423 12.2663 18.1173 13.1413 17.2673C15.5246 14.9756 18.1579 11.3423 17.1829 7.04232ZM9.99959 11.2173C8.54959 11.2173 7.37459 10.0423 7.37459 8.59232C7.37459 7.14232 8.54959 5.96732 9.99959 5.96732C11.4496 5.96732 12.6246 7.14232 12.6246 8.59232C12.6246 10.0423 11.4496 11.2173 9.99959 11.2173Z" fill="#285D8F"/>
</svg>
