<svg width="20" height="20" viewBox="0 0 20 20" fill="none" xmlns="http://www.w3.org/2000/svg">
<path d="M3.33398 6.66602H16.6673M3.33398 6.66602V13.9995C3.33398 14.9329 3.33398 15.3994 3.51564 15.7559C3.67543 16.0695 3.93021 16.3247 4.24382 16.4845C4.59999 16.666 5.06648 16.666 5.99808 16.666H14.0032C14.9348 16.666 15.4006 16.666 15.7568 16.4845C16.0704 16.3247 16.3261 16.0695 16.4858 15.7559C16.6673 15.3997 16.6673 14.9339 16.6673 14.0023V6.66602M3.33398 6.66602V5.99951C3.33398 5.06609 3.33398 4.59903 3.51564 4.24251C3.67543 3.92891 3.93021 3.67413 4.24382 3.51434C4.60033 3.33268 5.06739 3.33268 6.00081 3.33268H6.66732M16.6673 6.66602V5.99677C16.6673 5.06518 16.6673 4.59868 16.4858 4.24251C16.3261 3.92891 16.0704 3.67413 15.7568 3.51434C15.4003 3.33268 14.9342 3.33268 14.0008 3.33268H13.334M13.334 1.66602V3.33268M13.334 3.33268H6.66732M6.66732 1.66602V3.33268" stroke="black" stroke-width="1.25" stroke-linecap="round" stroke-linejoin="round"/>
</svg>
