<svg width="14" height="14" viewBox="0 0 14 14" fill="none" xmlns="http://www.w3.org/2000/svg">
<g id="DeleteOutlined">
<path id="Vector" d="M4.625 1.87305H4.5C4.56875 1.87305 4.625 1.8168 4.625 1.74805V1.87305H9.375V1.74805C9.375 1.8168 9.43125 1.87305 9.5 1.87305H9.375V2.99805H10.5V1.74805C10.5 1.19648 10.0516 0.748047 9.5 0.748047H4.5C3.94844 0.748047 3.5 1.19648 3.5 1.74805V2.99805H4.625V1.87305ZM12.5 2.99805H1.5C1.22344 2.99805 1 3.22148 1 3.49805V3.99805C1 4.0668 1.05625 4.12305 1.125 4.12305H2.06875L2.45469 12.2949C2.47969 12.8277 2.92031 13.248 3.45313 13.248H10.5469C11.0813 13.248 11.5203 12.8293 11.5453 12.2949L11.9313 4.12305H12.875C12.9438 4.12305 13 4.0668 13 3.99805V3.49805C13 3.22148 12.7766 2.99805 12.5 2.99805ZM10.4266 12.123H3.57344L3.19531 4.12305H10.8047L10.4266 12.123Z" fill="white"/>
</g>
</svg>
