<svg width="20" height="20" viewBox="0 0 20 20" fill="none" xmlns="http://www.w3.org/2000/svg">
<path d="M3.33349 3.33398L16.6668 16.6673M13.7502 13.9639C12.623 14.5711 11.349 15.0005 10.0002 15.0005C7.05794 15.0005 4.47211 12.9572 2.98925 11.483C2.59783 11.0939 2.40215 10.8993 2.27758 10.5174C2.18874 10.2451 2.18871 9.75612 2.27758 9.48377C2.40219 9.10187 2.59827 8.90686 2.99047 8.51704C3.73787 7.77416 4.76525 6.88698 5.97707 6.18962M16.2502 12.1952C16.5277 11.9511 16.7819 11.7109 17.01 11.4842L17.0124 11.4817C17.4029 11.0935 17.5987 10.8989 17.7231 10.5178C17.8119 10.2455 17.8118 9.75635 17.7229 9.48398C17.5984 9.10221 17.4025 8.90711 17.0113 8.51824C15.5284 7.04405 12.9424 5.00065 10.0002 5.00065C9.7189 5.00065 9.44091 5.01932 9.16682 5.05438M11.1026 11.2507C10.8088 11.51 10.4228 11.6673 10.0002 11.6673C9.07968 11.6673 8.33349 10.9211 8.33349 10.0007C8.33349 9.55106 8.5115 9.14322 8.80089 8.84342" stroke="#C0C0C0" stroke-width="2" stroke-linecap="round" stroke-linejoin="round"/>
</svg>
