<svg width="14" height="14" viewBox="0 0 14 14" fill="none" xmlns="http://www.w3.org/2000/svg">
<path id="Vector" d="M2.80002 11.2H0.93334C0.685879 11.1998 0.448623 11.1013 0.273642 10.9264C0.0986602 10.7514 0.000247091 10.5141 0 10.2667V8.4H0.93334V10.2667H2.80002V11.2ZM0 4.66667H0.93334V6.53333H0V4.66667ZM11.2001 2.8H10.2667V0.933333H8.40006V0H10.2667C10.5142 0.000247089 10.7515 0.0986595 10.9264 0.27364C11.1014 0.44862 11.1998 0.685874 11.2001 0.933333V2.8ZM4.6667 0H6.53338V0.933333H4.6667V0ZM0.93334 2.8H0V0.933333C0.000247091 0.685874 0.0986602 0.44862 0.273642 0.27364C0.448623 0.0986595 0.685879 0.000247089 0.93334 0H2.80002V0.933333H0.93334V2.8ZM11.6667 14C11.6055 14.0001 11.5448 13.988 11.4881 13.9646C11.4315 13.9411 11.3801 13.9067 11.3368 13.8633L8.47239 10.9989L6.92165 13.3257C6.87251 13.3994 6.8034 13.4576 6.72241 13.4934C6.64142 13.5293 6.55189 13.5414 6.46428 13.5283C6.37667 13.5152 6.29461 13.4774 6.22768 13.4194C6.16075 13.3613 6.11171 13.2855 6.08631 13.2006L3.28629 3.86727C3.2621 3.78657 3.26021 3.70083 3.28082 3.61914C3.30142 3.53746 3.34376 3.46287 3.40333 3.4033C3.4629 3.34373 3.53748 3.3014 3.61917 3.2808C3.70086 3.26019 3.7866 3.26208 3.86729 3.28627L13.2007 6.08627C13.2856 6.11167 13.3614 6.1607 13.4195 6.22763C13.4775 6.29456 13.5153 6.37663 13.5284 6.46423C13.5415 6.55184 13.5294 6.64137 13.4935 6.72236C13.4577 6.80335 13.3995 6.87246 13.3258 6.9216L10.9989 8.47233L13.8634 11.3367C13.9509 11.4242 14 11.5429 14 11.6667C14 11.7904 13.9509 11.9091 13.8634 11.9966L11.9967 13.8633C11.9534 13.9067 11.902 13.9411 11.8454 13.9646C11.7887 13.988 11.728 14.0001 11.6667 14ZM11.6667 12.8735L12.8736 11.6667L9.53453 8.32767L11.9827 6.69527L4.42963 4.4296L6.69531 11.9826L8.32773 9.53447L11.6667 12.8735Z" fill="#3886A7"/>
</svg>
