<svg width="16" height="16" viewBox="0 0 16 16" fill="none" xmlns="http://www.w3.org/2000/svg">
<g id="save">
<path id="Vector" d="M5.33333 4.66602H3.33333C2.97971 4.66602 2.64057 4.80649 2.39052 5.05654C2.14048 5.30659 2 5.64573 2 5.99935V11.9993C2 12.353 2.14048 12.6921 2.39052 12.9422C2.64057 13.1922 2.97971 13.3327 3.33333 13.3327H12.6667C13.0203 13.3327 13.3594 13.1922 13.6095 12.9422C13.8595 12.6921 14 12.353 14 11.9993V5.99935C14 5.64573 13.8595 5.30659 13.6095 5.05654C13.3594 4.80649 13.0203 4.66602 12.6667 4.66602H10.6667M10 7.33268L8 9.33268M8 9.33268L6 7.33268M8 9.33268V2.66602" stroke="white" stroke-linecap="round" stroke-linejoin="round"/>
</g>
</svg>
