<svg width="13" height="14" viewBox="0 0 13 14" fill="none" xmlns="http://www.w3.org/2000/svg">
<path id="Vector" d="M0 10.9437V13.1389C0 13.3411 0.158867 13.5 0.361062 13.5H2.55632C2.6502 13.5 2.74407 13.4639 2.80906 13.3917L10.6947 5.51331L7.98669 2.80534L0.108319 10.6837C0.0361063 10.7559 0 10.8426 0 10.9437ZM12.7888 3.41915C12.8558 3.35234 12.9089 3.27299 12.9451 3.18563C12.9813 3.09827 13 3.00462 13 2.91005C13 2.81547 12.9813 2.72183 12.9451 2.63447C12.9089 2.54711 12.8558 2.46776 12.7888 2.40095L11.099 0.711181C11.0322 0.644237 10.9529 0.591127 10.8655 0.55489C10.7782 0.518652 10.6845 0.5 10.59 0.5C10.4954 0.5 10.4017 0.518652 10.3144 0.55489C10.227 0.591127 10.1477 0.644237 10.0809 0.711181L8.75937 2.03267L11.4673 4.74063L12.7888 3.41915Z" fill="white"/>
</svg>
