<svg width="35" height="36" viewBox="0 0 35 36" fill="none" xmlns="http://www.w3.org/2000/svg">
<path d="M24.7917 25.5632C23.1808 25.5632 21.875 26.869 21.875 28.4798C21.875 30.0907 23.1808 31.3965 24.7917 31.3965C26.4025 31.3965 27.7083 30.0907 27.7083 28.4798C27.7083 26.869 26.4025 25.5632 24.7917 25.5632ZM24.7917 25.5632H13.5537C12.8813 25.5632 12.5445 25.5632 12.2677 25.4435C12.0235 25.338 11.8116 25.1681 11.6572 24.9514C11.4842 24.7086 11.4146 24.3838 11.2769 23.741L7.68758 6.99076C7.54664 6.33303 7.47522 6.00453 7.30021 5.75887C7.14586 5.5422 6.93404 5.37167 6.68984 5.26614C6.41296 5.14648 6.07802 5.14648 5.40536 5.14648H4.375M8.75 9.52148H27.5234C28.576 9.52148 29.1018 9.52148 29.4551 9.74076C29.7645 9.93283 29.9911 10.2341 30.0899 10.5846C30.2026 10.9848 30.0578 11.4902 29.766 12.5015L27.7468 19.5015C27.5724 20.1062 27.4851 20.408 27.3081 20.6324C27.1519 20.8304 26.9459 20.9854 26.7124 21.0806C26.4485 21.1882 26.135 21.1882 25.5093 21.1882H11.2736M11.6667 31.3965C10.0558 31.3965 8.75 30.0907 8.75 28.4798C8.75 26.869 10.0558 25.5632 11.6667 25.5632C13.2775 25.5632 14.5833 26.869 14.5833 28.4798C14.5833 30.0907 13.2775 31.3965 11.6667 31.3965Z" stroke="#2C689A" stroke-width="2" stroke-linecap="round" stroke-linejoin="round"/>
</svg>
