<svg width="21" height="21" viewBox="0 0 21 21" fill="none" xmlns="http://www.w3.org/2000/svg">
<path d="M3.47776 13.833C3.47776 14.717 3.82892 15.5647 4.45398 16.1898C5.07904 16.8148 5.9268 17.166 6.81076 17.166C7.69473 17.166 8.54249 16.8148 9.16755 16.1898C9.79261 15.5647 10.1438 14.717 10.1438 13.833C10.1438 12.949 9.79261 12.1013 9.16755 11.4762C8.54249 10.8512 7.69473 10.5 6.81076 10.5C5.9268 10.5 5.07904 10.8512 4.45398 11.4762C3.82892 12.1013 3.47776 12.949 3.47776 13.833ZM8.47776 13.833C8.48321 14.0553 8.44413 14.2764 8.36283 14.4834C8.28153 14.6903 8.15965 14.8789 8.00436 15.038C7.84907 15.1972 7.66352 15.3237 7.45862 15.41C7.25372 15.4963 7.03361 15.5408 6.81126 15.5408C6.58891 15.5408 6.36881 15.4963 6.16391 15.41C5.95901 15.3237 5.77346 15.1972 5.61817 15.038C5.46288 14.8789 5.341 14.6903 5.2597 14.4834C5.1784 14.2764 5.13932 14.0553 5.14476 13.833C5.15542 13.3981 5.33567 12.9846 5.64704 12.6807C5.95841 12.3769 6.37622 12.2068 6.81126 12.2068C7.24631 12.2068 7.66412 12.3769 7.97549 12.6807C8.28686 12.9846 8.46711 13.3981 8.47776 13.833ZM7.00176 7.167C5.29675 7.14832 3.64707 7.77153 2.38029 8.91289C1.11351 10.0542 0.322301 11.6303 0.163764 13.328C0.0940453 14.2438 0.214335 15.1642 0.517089 16.0313C0.819842 16.8984 1.29853 17.6937 1.92311 18.3671C2.54769 19.0405 3.3047 19.5775 4.14664 19.9446C4.98859 20.3116 5.8973 20.5007 6.81576 20.5C7.17276 20.5 7.52976 20.472 7.88176 20.417C8.94232 20.2429 9.94466 19.8137 10.8024 19.1661C11.6602 18.5186 12.3477 17.6723 12.8058 16.7C13.2258 15.846 13.4548 14.911 13.4778 13.96C13.4721 13.7659 13.5345 13.5759 13.6541 13.4229C13.7737 13.2698 13.943 13.1634 14.1328 13.122L20.1448 12.029V7.167H7.00176ZM18.4778 10.638L13.8338 11.483C13.2647 11.5907 12.7511 11.8939 12.3819 12.3402C12.0126 12.7865 11.811 13.3478 11.8118 13.927C11.7925 14.6388 11.6199 15.338 11.3058 15.977C10.8054 17.0294 9.95253 17.8734 8.89499 18.3627C7.83745 18.852 6.64199 18.9557 5.516 18.6558C4.39 18.3559 3.4045 17.6713 2.73045 16.7208C2.05641 15.7703 1.73634 14.6138 1.82576 13.452C1.95136 12.173 2.55337 10.988 3.51225 10.1323C4.47113 9.27658 5.71675 8.81279 7.00176 8.833H18.4778V10.638ZM9.31076 4.667H7.64476V0.5H9.31076V4.667ZM11.7278 5.867L10.2688 5.061L12.2818 1.417L13.7418 2.222L11.7278 5.867ZM5.24976 5.867L3.23376 2.218L4.69376 1.417L6.70676 5.06L5.24976 5.867Z" fill="#171C1A"/>
</svg>
