<svg width="20" height="20" viewBox="0 0 20 20" fill="none" xmlns="http://www.w3.org/2000/svg">
<path d="M3.33324 3.33398L16.6666 16.6673M13.7499 13.9639C12.6227 14.5711 11.3488 15.0005 9.99991 15.0005C7.0577 15.0005 4.47187 12.9572 2.989 11.483C2.59759 11.0939 2.40191 10.8993 2.27733 10.5174C2.18849 10.2451 2.18847 9.75612 2.27733 9.48377C2.40194 9.10187 2.59803 8.90686 2.99022 8.51704C3.73763 7.77416 4.76501 6.88698 5.97683 6.18962M16.2499 12.1952C16.5275 11.9511 16.7816 11.7109 17.0097 11.4842L17.0121 11.4817C17.4027 11.0935 17.5985 10.8989 17.7228 10.5178C17.8117 10.2455 17.8115 9.75635 17.7227 9.48398C17.5981 9.10221 17.4022 8.90711 17.0111 8.51824C15.5282 7.04405 12.9421 5.00065 9.99991 5.00065C9.71866 5.00065 9.44066 5.01932 9.16658 5.05438M11.1023 11.2507C10.8085 11.51 10.4226 11.6673 9.99991 11.6673C9.07944 11.6673 8.33324 10.9211 8.33324 10.0007C8.33324 9.55106 8.51126 9.14322 8.80064 8.84342" stroke="#C0C0C0" stroke-width="2" stroke-linecap="round" stroke-linejoin="round"/>
</svg>
