<svg width="20" height="20" viewBox="0 0 20 20" fill="none" xmlns="http://www.w3.org/2000/svg">
<path d="M9.99935 1.66675C5.40768 1.66675 1.66602 5.40841 1.66602 10.0001C1.66602 14.5917 5.40768 18.3334 9.99935 18.3334C14.591 18.3334 18.3327 14.5917 18.3327 10.0001C18.3327 5.40841 14.591 1.66675 9.99935 1.66675ZM12.7993 11.9167C13.041 12.1584 13.041 12.5584 12.7993 12.8001C12.6743 12.9251 12.516 12.9834 12.3577 12.9834C12.1993 12.9834 12.041 12.9251 11.916 12.8001L9.99935 10.8834L8.08268 12.8001C7.95768 12.9251 7.79935 12.9834 7.64102 12.9834C7.48268 12.9834 7.32435 12.9251 7.19935 12.8001C6.95768 12.5584 6.95768 12.1584 7.19935 11.9167L9.11602 10.0001L7.19935 8.08341C6.95768 7.84175 6.95768 7.44175 7.19935 7.20008C7.44102 6.95842 7.84102 6.95842 8.08268 7.20008L9.99935 9.11675L11.916 7.20008C12.1577 6.95842 12.5577 6.95842 12.7993 7.20008C13.041 7.44175 13.041 7.84175 12.7993 8.08341L10.8827 10.0001L12.7993 11.9167Z" fill="#FAFBFC"/>
</svg>
