<svg width="14" height="14" viewBox="0 0 14 14" fill="none" xmlns="http://www.w3.org/2000/svg">
<g id="vuesax/outline/close-circle">
<g id="close-circle">
<path id="Vector" d="M6.63218 12.5744C3.35455 12.5744 0.69043 9.91031 0.69043 6.63267C0.69043 3.35503 3.35455 0.690918 6.63218 0.690918C9.90982 0.690918 12.5739 3.35503 12.5739 6.63267C12.5739 9.91031 9.90982 12.5744 6.63218 12.5744ZM6.63218 1.52C3.8133 1.52 1.51951 3.81379 1.51951 6.63267C1.51951 9.45155 3.8133 11.7453 6.63218 11.7453C9.45106 11.7453 11.7449 9.45155 11.7449 6.63267C11.7449 3.81379 9.45106 1.52 6.63218 1.52Z" fill="#D02F3D"/>
<path id="Vector_2" d="M5.06843 8.61137C4.96342 8.61137 4.8584 8.57268 4.77549 8.48978C4.6152 8.32949 4.6152 8.06418 4.77549 7.90389L7.90389 4.77549C8.06418 4.6152 8.32949 4.6152 8.48978 4.77549C8.65006 4.93578 8.65006 5.20109 8.48978 5.36137L5.36137 8.48978C5.28399 8.57268 5.17345 8.61137 5.06843 8.61137Z" fill="#D02F3D"/>
<path id="Vector_3" d="M8.19683 8.61137C8.09182 8.61137 7.9868 8.57268 7.90389 8.48978L4.77549 5.36137C4.6152 5.20109 4.6152 4.93578 4.77549 4.77549C4.93578 4.6152 5.20109 4.6152 5.36137 4.77549L8.48978 7.90389C8.65006 8.06418 8.65006 8.32949 8.48978 8.48978C8.40687 8.57268 8.30185 8.61137 8.19683 8.61137Z" fill="#D02F3D"/>
</g>
</g>
</svg>
