<svg width="32" height="32" viewBox="0 0 32 32" fill="none" xmlns="http://www.w3.org/2000/svg">
<g id="vuesax/bold/gallery">
<g id="gallery">
<path id="Vector" d="M3.83253 25.0546L3.8067 25.0804C3.45795 24.3183 3.23837 23.4529 3.14795 22.4971C3.23837 23.44 3.48378 24.2925 3.83253 25.0546Z" fill="#7797B5"/>
<path id="Vector_2" d="M12.1249 13.9076C13.8228 13.9076 15.1991 12.5313 15.1991 10.8334C15.1991 9.13563 13.8228 7.75928 12.1249 7.75928C10.4271 7.75928 9.05078 9.13563 9.05078 10.8334C9.05078 12.5313 10.4271 13.9076 12.1249 13.9076Z" fill="#7797B5"/>
<path id="Vector_3" d="M21.4122 3.0835H10.5881C5.88641 3.0835 3.0835 5.88641 3.0835 10.5881V21.4122C3.0835 22.8202 3.32891 24.0472 3.80683 25.0806C4.91766 27.5347 7.29433 28.9168 10.5881 28.9168H21.4122C26.1139 28.9168 28.9168 26.1139 28.9168 21.4122V18.4543V10.5881C28.9168 5.88641 26.1139 3.0835 21.4122 3.0835ZM26.8114 16.646C25.8039 15.7806 24.1764 15.7806 23.1689 16.646L17.7956 21.2572C16.7881 22.1227 15.1606 22.1227 14.1531 21.2572L13.7139 20.8956C12.7968 20.0947 11.3372 20.0172 10.3039 20.7147L5.47308 23.9568C5.18891 23.2335 5.021 22.3939 5.021 21.4122V10.5881C5.021 6.94558 6.94558 5.021 10.5881 5.021H21.4122C25.0547 5.021 26.9793 6.94558 26.9793 10.5881V16.7881L26.8114 16.646Z" fill="#7797B5"/>
</g>
</g>
</svg>
