<svg width="107" height="107" viewBox="0 0 107 107" fill="none" xmlns="http://www.w3.org/2000/svg">
<g clip-path="url(#clip0_1_25403)">
<mask id="mask0_1_25403" style="mask-type:luminance" maskUnits="userSpaceOnUse" x="0" y="0" width="107" height="107">
<path d="M107 0H0V107H107V0Z" fill="white"/>
</mask>
<g mask="url(#mask0_1_25403)">
<path d="M55.462 97.7268C78.6072 97.7268 97.3704 78.9637 97.3704 55.8185C97.3704 32.6731 78.6072 13.9102 55.462 13.9102C32.3167 13.9102 13.5537 32.6731 13.5537 55.8185C13.5537 78.9637 32.3167 97.7268 55.462 97.7268Z" fill="#EAEAEA"/>
<path d="M30.1975 72.0467L47.8074 23.6909L84.9429 62.956L41.8119 82.7552C34.9029 85.9267 27.5961 79.19 30.1975 72.0467Z" fill="#F1F1F1"/>
<path d="M71.1801 38.962C76.3071 44.4251 80.4402 49.841 82.9779 54.1785C84.2476 56.3484 85.1129 58.2398 85.507 59.7271C85.7042 60.4708 85.7809 61.1042 85.7367 61.6164C85.6928 62.1271 85.5302 62.5049 85.2595 62.7588C84.9888 63.0131 84.6014 63.1515 84.0889 63.1629C83.5753 63.1747 82.9479 63.058 82.2178 62.8141C80.7587 62.3265 78.9258 61.3432 76.8407 59.9386C72.6727 57.1313 67.5292 52.6637 62.4018 47.2006C57.2747 41.7379 53.1416 36.3219 50.604 31.9845C49.3342 29.8145 48.469 27.9231 48.0748 26.4358C47.8776 25.692 47.8009 25.0585 47.8451 24.5464C47.889 24.0358 48.0517 23.658 48.3224 23.4039C48.5931 23.1498 48.9804 23.0114 49.4929 22.9998C50.0065 22.9882 50.6339 23.1049 51.3637 23.3487C52.8231 23.8362 54.6561 24.8196 56.7411 26.2242C60.9091 29.0316 66.0526 33.4991 71.1801 38.962Z" fill="#285D8F" stroke="#285D8F"/>
<mask id="mask1_1_25403" style="mask-type:alpha" maskUnits="userSpaceOnUse" x="29" y="23" width="56" height="61">
<path d="M30.1975 72.0467L47.8074 23.6909L84.9429 62.956L41.8119 82.7552C34.9029 85.9267 27.5961 79.19 30.1975 72.0467Z" fill="#E1DCEB"/>
</mask>
<g mask="url(#mask1_1_25403)">
<path fill-rule="evenodd" clip-rule="evenodd" d="M46.9812 55.8446C39.5411 46.1012 35.7768 34.4849 34.5625 26.6862L40.5537 25.7534C41.6465 32.7733 45.0962 43.3852 51.8005 52.1649C58.4412 60.8619 68.1575 67.6442 82.014 67.6442V73.7076C65.8428 73.7076 54.4844 65.6708 46.9812 55.8446Z" fill="#285D8F"/>
<path fill-rule="evenodd" clip-rule="evenodd" d="M47.7802 53.9812C40.3398 44.2378 36.5756 32.6217 35.3613 24.8229L41.3524 23.8901C42.4452 30.91 45.8949 41.5218 52.5992 50.3015C59.2403 58.9988 68.9563 65.7809 82.8128 65.7809V71.8442C66.6419 71.8442 55.2834 63.8078 47.7802 53.9812Z" fill="white"/>
<path fill-rule="evenodd" clip-rule="evenodd" d="M38.197 68.0903C30.757 58.3465 26.9925 46.7306 25.7783 38.9317L31.7695 37.999C32.8624 45.0189 36.312 55.6308 43.0162 64.4105C49.6574 73.1075 59.3733 79.8895 73.2298 79.8895V85.9529C57.0586 85.9529 45.7005 77.9164 38.197 68.0903Z" fill="white"/>
</g>
<path d="M64.2 86.67C70.1095 86.67 74.9 81.8795 74.9 75.97C74.9 70.0606 70.1095 65.27 64.2 65.27C58.2906 65.27 53.5 70.0606 53.5 75.97C53.5 81.8795 58.2906 86.67 64.2 86.67Z" fill="#4EACDF"/>
<path fill-rule="evenodd" clip-rule="evenodd" d="M68.5298 72.7233C68.9442 73.1449 68.9385 73.8222 68.5169 74.2363L63.4373 79.2296C63.0207 79.6391 62.3534 79.6391 61.9371 79.2296L59.8834 77.2112C59.4619 76.7968 59.4562 76.1195 59.8706 75.6979C60.2847 75.2767 60.962 75.271 61.3836 75.6851L62.6872 76.9662L67.0168 72.7104C67.4384 72.296 68.1157 72.3017 68.5298 72.7233Z" fill="white"/>
<path d="M85.1234 24.8845C85.7564 23.2765 86.009 21.6728 86.2733 19.9919C86.3185 19.7055 86.3638 19.4168 86.4116 19.1255L85.1234 24.8845ZM85.1234 24.8845C85.0156 25.1589 84.7043 25.2947 84.43 25.1863L84.4293 25.1859C84.1547 25.0793 84.0191 24.769 84.1268 24.4949M85.1234 24.8845L84.1268 24.4949L85.1234 24.8845ZM84.1268 24.4949C84.731 22.9597 84.9693 21.4224 85.2115 19.8614L84.1268 24.4949ZM84.1268 24.4949L85.2115 19.8614L84.1268 24.4949ZM85.2115 19.8614C85.2582 19.5598 85.3053 19.2573 85.3548 18.9538L85.2115 19.8614ZM85.9697 18.5121C86.2615 18.5602 86.4591 18.8346 86.4116 19.1255L85.3548 18.9538C85.403 18.6621 85.6783 18.4641 85.9697 18.5121Z" fill="#285D8F"/>
<path d="M85.1234 24.8845C85.7564 23.2765 86.009 21.6728 86.2733 19.9919C86.3185 19.7055 86.3638 19.4168 86.4116 19.1255M85.1234 24.8845L86.4116 19.1255M85.1234 24.8845C85.0156 25.1589 84.7043 25.2947 84.43 25.1863L84.4293 25.1859C84.1547 25.0793 84.0191 24.769 84.1268 24.4949M85.1234 24.8845L84.1268 24.4949M86.4116 19.1255C86.4591 18.8346 86.2615 18.5602 85.9697 18.5121C85.6783 18.4641 85.403 18.6621 85.3548 18.9538M86.4116 19.1255L85.3548 18.9538M84.1268 24.4949C84.731 22.9597 84.9693 21.4224 85.2115 19.8614M84.1268 24.4949L85.2115 19.8614M85.2115 19.8614C85.2582 19.5598 85.3053 19.2573 85.3548 18.9538M85.2115 19.8614L85.3548 18.9538" stroke="#285D8F"/>
<path d="M88.804 29.1734L88.8036 29.1735C88.5614 29.3417 88.2276 29.2812 88.0586 29.0393C87.8902 28.7985 87.9498 28.4659 88.1923 28.2973C91.7836 25.8113 95.3021 22.4636 97.9186 18.9566C98.0944 18.7205 98.4301 18.6714 98.668 18.8472C98.9044 19.0221 98.9536 19.3566 98.7778 19.593C96.0964 23.1874 92.4873 26.6218 88.804 29.1734Z" fill="#285D8F" stroke="#285D8F"/>
<path d="M98.6886 31.5241C98.7696 31.8041 98.6069 32.1004 98.3216 32.183C95.434 33.008 92.2529 33.4277 89.3532 32.5424C89.0707 32.4561 88.912 32.1564 88.998 31.8764C89.0836 31.5963 89.3828 31.4366 89.6656 31.5231L89.666 31.5231C92.4002 32.3573 95.372 31.9164 98.0259 31.1572C98.3105 31.0767 98.6073 31.241 98.6886 31.5241Z" fill="#285D8F" stroke="#285D8F"/>
<path d="M89.5228 39.947C90.7047 39.947 91.6628 38.9889 91.6628 37.807C91.6628 36.6251 90.7047 35.667 89.5228 35.667C88.3409 35.667 87.3828 36.6251 87.3828 37.807C87.3828 38.9889 88.3409 39.947 89.5228 39.947Z" fill="#F0BD0A"/>
<path d="M71.6898 17.8337C72.8717 17.8337 73.8298 16.8756 73.8298 15.6937C73.8298 14.5118 72.8717 13.5537 71.6898 13.5537C70.5079 13.5537 69.5498 14.5118 69.5498 15.6937C69.5498 16.8756 70.5079 17.8337 71.6898 17.8337Z" fill="#F0BD0A"/>
<path d="M75.8069 25.1311C75.6222 24.3664 74.5343 24.3664 74.3499 25.1311L74.1106 26.1217C74.0446 26.3949 73.8313 26.6083 73.5581 26.6743L72.5677 26.9134C71.803 27.098 71.803 28.1857 72.5677 28.3702L73.5581 28.6093C73.8313 28.6753 74.0446 28.8887 74.1106 29.162L74.3499 30.1525C74.5343 30.9172 75.6222 30.9172 75.8069 30.1525L76.0459 29.162C76.1119 28.8887 76.3251 28.6753 76.5983 28.6093L77.5888 28.3702C78.3535 28.1857 78.3535 27.098 77.5888 26.9134L76.5983 26.6743C76.3251 26.6083 76.1119 26.3949 76.0459 26.1217L75.8069 25.1311Z" fill="#F0BD0A"/>
<path fill-rule="evenodd" clip-rule="evenodd" d="M66.6836 8.6709C66.8998 9.22085 66.6294 9.84198 66.0794 10.0583C64.5094 10.6755 62.4978 12.6639 61.1546 15.1387C60.1324 17.0225 59.6355 18.925 59.8442 20.482C60.4723 19.5854 61.2241 18.8499 62.0966 18.3774C63.6598 17.5305 65.4439 17.6204 67.1708 18.7973C68.6799 19.8257 69.2952 21.2889 69.1322 22.7469C68.9767 24.1409 68.1264 25.4011 66.9725 26.1927C65.8016 26.9963 64.2469 27.3668 62.6433 26.8757C61.7342 26.5973 60.8621 26.059 60.0643 25.2416C59.3031 28.2049 59.3306 31.9167 60.5886 35.1996C60.8001 35.7514 60.5244 36.3702 59.9722 36.5817C59.4205 36.7932 58.8017 36.5172 58.5905 35.9654C56.9313 31.6358 57.1467 26.6912 58.4996 23.0899C58.4614 23.0205 58.4232 22.9501 58.3854 22.8788C56.962 20.1914 57.8144 16.8071 59.2739 14.1179C60.7444 11.4079 63.077 8.9394 65.2962 8.06671C65.8462 7.85042 66.4671 8.12096 66.6836 8.6709ZM60.9024 22.906C61.7106 24.0539 62.5492 24.6088 63.27 24.8295C64.1777 25.1074 65.0626 24.9081 65.7617 24.4283C66.4782 23.9366 66.9283 23.2 67.0057 22.5092C67.0756 21.8823 66.8566 21.1728 65.9657 20.5657C64.8368 19.7964 63.9095 19.8291 63.1159 20.2591C62.3241 20.6879 61.5401 21.5852 60.9024 22.906Z" fill="#EAEAEA"/>
<path fill-rule="evenodd" clip-rule="evenodd" d="M101.225 50.5188C90.0092 46.3504 81.426 51.5338 78.6508 54.4656C77.9735 55.1808 76.845 55.2118 76.1295 54.5348C75.4144 53.8575 75.3834 52.729 76.0607 52.0136C79.5853 48.2903 89.6186 42.4 102.468 47.1757C103.391 47.5189 103.861 48.5453 103.518 49.4687C103.175 50.3918 102.148 50.8619 101.225 50.5188Z" fill="#F0BD0A"/>
<path fill-rule="evenodd" clip-rule="evenodd" d="M89.8148 54.2666C90.0649 54.175 90.3284 54.053 90.5314 53.8768C90.7725 53.6674 90.8709 53.3975 90.9365 53.1135C91.0211 52.7487 91.055 52.3603 91.1577 51.9947C91.1955 51.8592 91.2686 51.8078 91.3 51.785C91.3792 51.7275 91.4594 51.7122 91.5347 51.7179C91.6242 51.7247 91.7469 51.7593 91.8275 51.9134C91.8389 51.9351 91.8539 51.9686 91.8639 52.0147C91.8714 52.0485 91.876 52.1538 91.8839 52.1973C91.9031 52.3043 91.9195 52.4113 91.9349 52.519C91.9855 52.8771 92.0148 53.1813 92.1753 53.5102C92.3928 53.9571 92.6107 54.2303 92.9064 54.3515C93.1925 54.4685 93.5345 54.4464 93.9711 54.3547C94.0128 54.3444 94.0538 54.3355 94.0945 54.3284C94.2874 54.2938 94.4715 54.4236 94.5093 54.6208C94.5471 54.8177 94.4248 55.0096 94.2339 55.0531C94.194 55.062 94.1548 55.0706 94.1159 55.0784C93.5256 55.2286 92.8422 55.7646 92.4449 56.234C92.3226 56.3785 92.1432 56.7833 91.9605 57.0412C91.8257 57.2316 91.6738 57.3572 91.5468 57.4014C91.4612 57.4313 91.3895 57.4267 91.33 57.4117C91.2436 57.39 91.1719 57.3418 91.117 57.2655C91.0871 57.2234 91.0596 57.1674 91.0464 57.0961C91.04 57.0615 91.0393 56.9741 91.0393 56.9345C91.0022 56.8025 90.9565 56.6741 90.9234 56.5411C90.8442 56.224 90.6887 56.0236 90.5039 55.7582C90.3309 55.51 90.1455 55.3541 89.8737 55.2296C89.838 55.2207 89.5527 55.149 89.4517 55.1077C89.3044 55.0474 89.2342 54.9461 89.2089 54.8915C89.1653 54.7988 89.1611 54.7182 89.1696 54.6508C89.1825 54.5513 89.226 54.466 89.303 54.3972C89.3508 54.3547 89.4221 54.313 89.5177 54.2927C89.5916 54.277 89.7874 54.2677 89.8148 54.2666ZM91.4897 53.7498C91.5029 53.7802 91.5172 53.8105 91.5318 53.8411C91.8507 54.4956 92.2073 54.8609 92.6403 55.0381L92.655 55.0438C92.365 55.265 92.1028 55.5121 91.9024 55.7489C91.8197 55.8467 91.7105 56.0493 91.5921 56.2568C91.4851 55.8984 91.3096 55.6452 91.0888 55.3281C90.9201 55.0863 90.7436 54.904 90.5264 54.7556C90.6951 54.6668 90.8556 54.5627 90.9958 54.4414C91.2287 54.2388 91.3827 54.0045 91.4897 53.7498Z" fill="#F0BD0A"/>
<path d="M27.7429 55.2445C27.9838 55.0277 28.0046 54.655 27.7878 54.4124C27.572 54.1692 27.1993 54.1481 26.9578 54.3657C25.3477 55.8145 24.4299 57.6121 24.1648 59.7592C24.1242 60.0824 24.3543 60.3773 24.6751 60.4183C24.9982 60.459 25.2927 60.2293 25.3314 59.9058C25.561 58.0458 26.3503 56.4972 27.7429 55.2445Z" fill="#285D8F" stroke="#285D8F"/>
<path d="M24.3924 75.0059C24.2958 75.003 24.154 74.9773 24.0488 74.8083C24.0267 74.774 23.9679 74.5939 23.926 74.2815C23.9042 74.1167 23.878 73.8999 23.8464 73.6391C23.6349 71.8954 23.1847 68.1811 22.2534 64.8937C21.5662 62.4665 20.6414 60.2634 19.3101 59.3578C15.5061 56.7709 11.0907 56.6925 8.50038 59.2483M24.3924 75.0059L8.50038 59.2483L24.3924 75.0059ZM24.3924 75.0059C24.5321 75.0084 24.6362 74.9649 24.7162 74.9053L24.3924 75.0059ZM24.3924 75.0059L24.7162 74.9053L24.3924 75.0059ZM24.7162 74.9053C24.8241 74.824 24.9034 74.6984 24.9214 74.5215L24.7162 74.9053ZM24.7162 74.9053L24.9214 74.5215L24.7162 74.9053ZM24.9214 74.5215C24.9306 74.4242 24.9161 74.2925 24.8905 74.1542L24.9214 74.5215ZM6.38306 60.3501C6.14969 60.7506 5.94864 61.1715 5.78757 61.6095C5.70892 61.8231 5.57542 62.285 5.60463 62.6738C5.63524 63.0986 5.84178 63.4663 6.27528 63.6068C6.78238 63.7705 7.1786 63.6903 7.47082 63.4798C7.74952 63.2797 7.92479 62.9545 8.0019 62.5725L8.00193 62.5721C8.07537 62.2076 8.05882 61.7757 7.99969 61.3737C7.94647 61.0121 7.85709 60.6629 7.75805 60.3918L6.38306 60.3501ZM7.08027 59.3343C7.04232 59.3821 7.00491 59.4302 6.96796 59.4784C7.0068 59.5258 7.04514 59.5736 7.08295 59.6221C7.1199 59.5729 7.15735 59.5244 7.19533 59.4763C7.15745 59.4285 7.11908 59.381 7.08027 59.3343ZM24.5132 71.0515C24.4907 70.8956 24.4672 70.7366 24.4427 70.5739C24.4044 70.7305 24.3675 70.8871 24.332 71.0444C24.3573 71.2191 24.3815 71.3893 24.4044 71.5548C24.439 71.3864 24.4753 71.2188 24.5132 71.0515ZM32.4849 53.7079C32.4847 53.7079 32.4846 53.7079 32.4845 53.7075C32.4844 53.7075 32.4846 53.7075 32.4845 53.7075L32.3711 53.8452L32.4849 53.7079ZM25.0209 73.9041L24.8437 73.8838L25.0208 73.9048C25.0208 73.9045 25.0208 73.9041 25.0209 73.9041ZM23.8974 74.9024C23.8975 74.9024 23.8977 74.9028 23.8979 74.9032C23.8982 74.9035 23.8986 74.9042 23.8989 74.9049L24.0488 74.8083L23.8974 74.9024ZM6.78873 62.5175C6.78656 62.5175 6.78328 62.5175 6.77857 62.5175C6.77785 62.5175 6.77707 62.5175 6.77632 62.5175C6.77632 62.5161 6.77636 62.515 6.77639 62.5143C6.7857 62.346 6.84052 62.1598 6.88097 62.045C6.87793 62.1488 6.86795 62.2472 6.84976 62.3364C6.83731 62.3977 6.82654 62.4423 6.81291 62.4758C6.80261 62.5015 6.79387 62.5126 6.78873 62.5175Z" fill="#285D8F"/>
<path d="M24.3924 75.0059C24.2958 75.003 24.154 74.9773 24.0488 74.8083M24.3924 75.0059L8.50038 59.2483M24.3924 75.0059C24.5321 75.0084 24.6362 74.9649 24.7162 74.9053M24.3924 75.0059L24.7162 74.9053M24.0488 74.8083C24.0267 74.774 23.9679 74.5939 23.926 74.2815C23.9042 74.1167 23.878 73.8999 23.8464 73.6391C23.6349 71.8954 23.1847 68.1811 22.2534 64.8937C21.5662 62.4665 20.6414 60.2634 19.3101 59.3578C15.5061 56.7709 11.0907 56.6925 8.50038 59.2483M24.0488 74.8083L23.8989 74.9049C23.8986 74.9042 23.8982 74.9035 23.8979 74.9032C23.8977 74.9028 23.8975 74.9024 23.8974 74.9024L24.0488 74.8083ZM8.50038 59.2483L8.62564 59.3753M24.7162 74.9053C24.8241 74.824 24.9034 74.6984 24.9214 74.5215M24.7162 74.9053L24.9214 74.5215M24.9214 74.5215C24.9306 74.4242 24.9161 74.2925 24.8905 74.1542L24.9214 74.5215ZM-1.90409 58.0221C-1.90412 58.0221 -1.90405 58.0221 -1.90409 58.0221ZM-1.90409 58.0221L-1.80509 58.1701M32.4845 53.7075C32.4846 53.7079 32.4847 53.7079 32.4849 53.7079L32.3711 53.8452L32.4845 53.7075ZM32.4845 53.7075C32.4844 53.7075 32.4846 53.7075 32.4845 53.7075ZM19.2098 59.5051L19.3088 59.3596M6.38306 60.3501C6.14969 60.7506 5.94864 61.1715 5.78757 61.6095C5.70892 61.8231 5.57542 62.285 5.60463 62.6738C5.63524 63.0986 5.84178 63.4663 6.27528 63.6068C6.78238 63.7705 7.1786 63.6903 7.47082 63.4798C7.74952 63.2797 7.92479 62.9545 8.0019 62.5725L8.00193 62.5721C8.07537 62.2076 8.05882 61.7757 7.99969 61.3737C7.94647 61.0121 7.85709 60.6629 7.75805 60.3918L6.38306 60.3501ZM7.08027 59.3343C7.04232 59.3821 7.00491 59.4302 6.96796 59.4784C7.0068 59.5258 7.04514 59.5736 7.08295 59.6221C7.1199 59.5729 7.15735 59.5244 7.19533 59.4763C7.15745 59.4285 7.11908 59.381 7.08027 59.3343ZM24.5132 71.0515C24.4907 70.8956 24.4672 70.7366 24.4427 70.5739C24.4044 70.7305 24.3675 70.8871 24.332 71.0444C24.3573 71.2191 24.3815 71.3893 24.4044 71.5548C24.439 71.3864 24.4753 71.2188 24.5132 71.0515ZM25.0209 73.9041L24.8437 73.8838L25.0208 73.9048C25.0208 73.9045 25.0208 73.9041 25.0209 73.9041ZM6.78873 62.5175C6.78656 62.5175 6.78328 62.5175 6.77857 62.5175C6.77785 62.5175 6.77707 62.5175 6.77632 62.5175C6.77632 62.5161 6.77636 62.515 6.77639 62.5143C6.7857 62.346 6.84052 62.1598 6.88097 62.045C6.87793 62.1488 6.86795 62.2472 6.84976 62.3364C6.83731 62.3977 6.82654 62.4423 6.81291 62.4758C6.80261 62.5015 6.79387 62.5126 6.78873 62.5175Z" stroke="#285D8F"/>
</g>
</g>
<defs>
<clipPath id="clip0_1_25403">
<rect width="107" height="107" fill="white"/>
</clipPath>
</defs>
</svg>
