<svg width="20" height="21" viewBox="0 0 20 21" fill="none" xmlns="http://www.w3.org/2000/svg">
<path d="M9.99935 2.16675C5.40768 2.16675 1.66602 5.90841 1.66602 10.5001C1.66602 15.0917 5.40768 18.8334 9.99935 18.8334C14.591 18.8334 18.3327 15.0917 18.3327 10.5001C18.3327 5.90841 14.591 2.16675 9.99935 2.16675ZM13.9827 8.58341L9.25768 13.3084C9.14102 13.4251 8.98268 13.4917 8.81602 13.4917C8.64935 13.4917 8.49102 13.4251 8.37435 13.3084L6.01602 10.9501C5.77435 10.7084 5.77435 10.3084 6.01602 10.0667C6.25768 9.82508 6.65768 9.82508 6.89935 10.0667L8.81602 11.9834L13.0993 7.70008C13.341 7.45842 13.741 7.45842 13.9827 7.70008C14.2244 7.94175 14.2244 8.33341 13.9827 8.58341Z" fill="#FAFBFC"/>
</svg>
